<svg width="24" height="24" viewBox="0 0 24 24" fill="none" xmlns="http://www.w3.org/2000/svg">
<path d="M12 12H11C11 12.4304 11.2754 12.8126 11.6838 12.9487L12 12ZM13 7C13 6.44772 12.5523 6 12 6C11.4477 6 11 6.44772 11 7H13ZM14.6838 13.9487C15.2077 14.1233 15.774 13.8402 15.9487 13.3162C16.1233 12.7923 15.8402 12.226 15.3162 12.0513L14.6838 13.9487ZM12 12H13V7H12H11V12H12ZM12 12L11.6838 12.9487L14.6838 13.9487L15 13L15.3162 12.0513L12.3162 11.0513L12 12ZM22 12H21C21 16.9706 16.9706 21 12 21V22V23C18.0751 23 23 18.0751 23 12H22ZM12 22V21C7.02944 21 3 16.9706 3 12H2H1C1 18.0751 5.92487 23 12 23V22ZM2 12H3C3 7.02944 7.02944 3 12 3V2V1C5.92487 1 1 5.92487 1 12H2ZM12 2V3C16.9706 3 21 7.02944 21 12H22H23C23 5.92487 18.0751 1 12 1V2Z" fill="white"/>
</svg>
