<svg width="86" height="86" viewBox="0 0 86 86" fill="none" xmlns="http://www.w3.org/2000/svg">
<path d="M54.5375 14.4467C51.505 13.2481 48.6765 11.6342 46.1302 9.64961C45.0202 8.78347 43.9693 7.85311 43.0003 6.87738C42.0313 7.85311 40.9804 8.78347 39.8704 9.64961C37.3241 11.6342 34.4956 13.2481 31.4631 14.4467C28.8626 15.4745 26.092 16.2 23.2195 16.6055V23.606C23.2195 29.7701 24.3039 35.1537 26.4434 39.6078C28.1098 43.0773 30.4311 46.0162 33.3439 48.3426C35.9722 50.4422 38.6205 51.661 40.3788 52.3139C41.491 52.7266 42.3978 52.973 43.0003 53.1128C43.6028 52.973 44.5092 52.7266 45.6218 52.3139C47.3801 51.661 50.0284 50.4422 52.6567 48.3426C55.5695 46.0163 57.8908 43.0774 59.5572 39.6078C61.6967 35.1537 62.7811 29.7701 62.7811 23.606V16.6055C59.9085 16.2 57.138 15.4745 54.5375 14.4467ZM53.7499 23.7882C48.3587 28.6903 44.1653 34.8917 41.6236 41.7209C41.4028 42.315 40.8675 42.7352 40.2377 42.8087C40.1722 42.8167 40.1063 42.8205 40.0412 42.8205C39.4824 42.8205 38.9538 42.5425 38.6381 42.0707C37.366 40.1679 36.0318 38.4382 32.5723 36.5338C31.7553 36.0846 31.4576 35.0576 31.9072 34.241C32.3568 33.4244 33.3838 33.1263 34.2 33.5764C36.7593 34.9846 38.3921 36.3856 39.5996 37.7492C42.3676 31.5213 46.4346 25.8766 51.4786 21.2902C52.1684 20.663 53.236 20.7137 53.8633 21.4036C54.4905 22.0933 54.4401 23.1609 53.7499 23.7882Z" fill="#4CCC6A"/>
<path d="M43.0002 0.523926C43.0002 0.523926 35.9549 12.2094 19.168 12.9101C19.168 12.9101 19.168 19.384 19.168 23.6059C19.168 53.7266 43.0002 57.2444 43.0002 57.2444C43.0002 57.2444 66.8325 53.7266 66.8325 23.6059C66.8325 19.384 66.8325 12.9101 66.8325 12.9101C50.0456 12.2094 43.0002 0.523926 43.0002 0.523926ZM64.1317 23.606C64.1317 29.9741 63.0019 35.5547 60.7742 40.1927C59.0192 43.8461 56.572 46.9437 53.4996 49.3977C50.7312 51.6094 47.943 52.8928 46.0915 53.5801C44.8131 54.0541 43.7845 54.3228 43.1467 54.4643L43.0002 54.497L42.8537 54.4643C42.2159 54.3228 41.1873 54.0541 39.9089 53.5801C38.0574 52.8928 35.2692 51.6094 32.5008 49.3977C29.4284 46.9437 26.9812 43.8465 25.2262 40.1927C22.9985 35.5547 21.8687 29.9742 21.8687 23.606V15.4187L22.4599 15.3447C25.4315 14.9719 28.2936 14.2473 30.9667 13.191C33.8792 12.0397 36.5955 10.4897 39.0398 8.58447C40.2876 7.6117 41.4547 6.55497 42.5107 5.4432L43.0002 4.9272L43.4897 5.4432C44.5457 6.55493 45.7128 7.6117 46.9606 8.58447C49.4049 10.4897 52.1212 12.0397 55.0337 13.191C57.7068 14.2473 60.5689 14.9719 63.5405 15.3447L64.1317 15.4187L64.1317 23.606Z" fill="#C3D1CF"/>
<path d="M33.3817 72.7847C32.6447 71.414 32.0522 69.9765 31.6711 68.4661C31.4118 67.4382 31.2624 66.3822 30.9556 65.3664C30.2036 62.8768 28.6107 60.7228 26.5692 59.1365C24.2985 57.3723 21.6989 56.0841 19.317 54.4834C18.5174 53.946 17.7382 53.3784 17.0024 52.756C16.4486 52.2875 15.9215 51.7892 15.3828 51.3037C14.7083 50.6958 14.0089 50.1182 13.2853 49.5696C13.1131 49.4391 12.9416 49.3116 12.7601 49.1993C12.3916 48.1231 12.0231 47.0469 11.6561 45.9702C11.2813 44.8708 10.9081 43.7709 10.5381 42.6699C10.1961 41.6517 9.87641 40.6238 9.50301 39.6165C9.15878 38.688 8.75055 37.7701 8.16046 36.9693C7.86441 36.5675 7.53514 36.1708 7.09932 35.9153C6.71123 35.6879 6.25792 35.5753 5.80851 35.5952C5.72173 35.599 5.63523 35.6082 5.54923 35.6208C5.45178 35.5595 5.34423 35.5106 5.239 35.4666C5.01041 35.371 4.76914 35.3152 4.52232 35.2949C3.56623 35.2166 2.59532 35.7418 2.14205 36.5878C2.09314 36.6791 2.05096 36.7741 2.01391 36.8709C1.83923 36.9824 1.67732 37.1161 1.53414 37.2711C1.15801 37.6781 0.93546 38.2021 0.900324 38.7549C0.874187 39.1661 0.960142 39.5913 1.02082 39.9973C1.14787 40.8469 1.30573 41.6918 1.47332 42.5343C1.91446 44.7519 2.42682 46.9554 2.95323 49.1541C3.55082 51.65 4.17455 54.1396 4.80496 56.6273C5.39619 58.9604 5.99528 61.2916 6.58519 63.625C6.88919 64.8274 7.42841 65.9259 8.28391 66.8348C8.7116 67.2891 9.20464 67.6846 9.74028 68.0046C10.2788 68.3264 10.8563 68.5877 11.4106 68.8814C13.5368 70.0081 15.6026 71.2561 17.5367 72.6903C19.4311 74.0951 21.1876 75.6828 22.7646 77.4369C24.4766 79.3413 25.969 81.4328 27.2797 83.6309C27.6279 84.2149 27.963 84.8065 28.2877 85.4039C28.3772 85.5684 28.6285 85.4217 28.539 85.257C27.3122 82.9999 25.923 80.8303 24.3184 78.8221C22.8688 77.0078 21.2439 75.3373 19.4652 73.8439C17.7162 72.3754 15.829 71.079 13.8634 69.9184C12.815 69.2992 11.7446 68.7175 10.6605 68.1635C10.0965 67.8754 9.55178 67.5788 9.06346 67.1702C8.58741 66.7719 8.16719 66.3071 7.82264 65.7908C7.14641 64.7773 6.88955 63.6387 6.59432 62.4765C6.30937 61.3549 6.02291 60.2335 5.7371 59.112C5.11637 56.6769 4.49782 54.2412 3.89646 51.8012C3.32646 49.4886 2.76887 47.1725 2.25701 44.8462C1.87301 43.1011 1.49401 41.3465 1.25201 39.575C1.18237 39.0654 1.14487 38.5689 1.35014 38.0815C1.57951 37.5369 2.04437 37.1067 2.5961 36.9003C3.18241 36.6809 3.84432 36.7138 4.39191 37.0252C5.00232 37.3723 5.43751 38.0246 5.78823 38.6158C6.52228 39.8533 6.93414 41.2515 7.38423 42.6086C7.90755 44.1866 8.431 45.7645 8.9545 47.3424C9.19791 48.0762 9.44137 48.8098 9.68487 49.5435C9.5071 49.8183 9.4151 50.1305 9.33964 50.4528C9.26573 50.7683 9.23546 51.0922 9.25051 51.4159C9.30605 52.609 9.80832 53.7419 10.2808 54.8193C10.9527 56.3511 11.7167 57.8321 12.8575 59.0719C13.477 59.7453 14.1742 60.3429 14.8942 60.9055C15.8886 61.6825 16.927 62.4018 17.9712 63.1094C18.6388 63.5619 19.3104 64.0084 19.983 64.4534C20.158 64.5692 20.3211 64.2876 20.1471 64.1725C18.9015 63.3486 17.6564 62.5222 16.4411 61.6539C15.5931 61.048 14.7562 60.421 13.9816 59.7224C13.3877 59.187 12.8329 58.6054 12.3586 57.9606C11.8859 57.3179 11.492 56.6225 11.1399 55.9077C10.6474 54.9078 10.1657 53.8704 9.84273 52.803C9.61278 52.0429 9.47591 51.2466 9.66887 50.4748C9.7751 50.0499 9.91401 49.6557 10.2758 49.375C10.7532 49.0048 11.4055 49.0241 11.9591 49.1894C12.5797 49.3748 13.082 49.8125 13.5824 50.2067C13.9368 50.4858 14.285 50.7729 14.6262 51.068C15.1745 51.5423 15.7008 52.0408 16.2414 52.5236C16.8577 53.074 17.5006 53.5924 18.1691 54.0782C20.4613 55.7434 22.992 57.0359 25.3277 58.634C26.2951 59.2959 27.2173 60.0256 28.0128 60.8901C29.0244 61.9893 29.83 63.2825 30.3714 64.6749C30.7803 65.7266 30.9651 66.8287 31.2092 67.925C31.5136 69.292 31.9616 70.6114 32.5598 71.8784C33.5797 74.0383 34.9396 76.0304 36.3809 77.9277C36.8663 78.5668 37.3644 79.1962 37.8717 79.818C38.0041 79.9803 38.233 79.749 38.1016 79.5881C36.3588 77.4519 34.6903 75.2183 33.3817 72.7847ZM9.90155 49.2741C9.39973 47.7619 8.89801 46.2496 8.39637 44.7373C7.89719 43.2324 7.44155 41.7035 6.8686 40.2247C6.62014 39.5834 6.33687 38.9526 5.97701 38.3654C5.62901 37.7976 5.20401 37.1942 4.63396 36.8317C3.97023 36.4096 3.14605 36.3724 2.43982 36.6532C2.82182 36.0131 3.54214 35.5954 4.28801 35.5789C4.52228 35.5738 4.72573 35.6013 4.94969 35.67C5.06023 35.7039 5.15441 35.7413 5.25496 35.7917C5.30851 35.8185 5.35887 35.8512 5.41196 35.8785C5.41905 35.8821 5.42319 35.8841 5.42582 35.8852C5.43269 35.8904 5.43996 35.8949 5.44773 35.8986C5.45964 35.9073 5.47151 35.9161 5.48355 35.924C5.52082 35.9485 5.55755 35.9739 5.59319 36.0007C5.83573 36.1831 6.0361 36.4225 6.22341 36.6593C6.40696 36.8914 6.5726 37.1381 6.7251 37.3916C7.34546 38.4228 7.73078 39.571 8.10791 40.7074C8.52373 41.9603 8.94028 43.2131 9.3576 44.4655C9.80219 45.7998 10.2474 47.134 10.6928 48.4681C10.7295 48.5779 10.7661 48.6878 10.8028 48.7976C10.4657 48.8661 10.1537 49.0195 9.90155 49.2741ZM11.428 48.7622C11.3166 48.7534 11.2057 48.7522 11.0963 48.7588C10.6528 47.4305 10.2094 46.1022 9.76664 44.7737C9.33451 43.4771 8.90287 42.1803 8.47241 40.8831C8.08269 39.7086 7.70005 38.5166 7.08741 37.435C6.93541 37.1667 6.7691 36.9063 6.58582 36.6583C6.39882 36.4051 6.19878 36.1523 5.96769 35.9377C5.94782 35.9192 5.92723 35.9017 5.90678 35.884C5.95923 35.8839 6.01169 35.8857 6.06401 35.8894C6.27096 35.9038 6.47528 35.9522 6.6686 36.0273C7.11519 36.2007 7.44773 36.5369 7.74378 36.9023C8.35223 37.653 8.77769 38.5383 9.12432 39.4349C9.50301 40.4145 9.81269 41.4212 10.1465 42.4166C10.5113 43.5046 10.8794 44.5914 11.2493 45.6777C11.6204 46.7674 11.9931 47.8565 12.366 48.9455C12.3723 48.964 12.3786 48.9825 12.3849 49.0009C12.3843 49.0007 12.3837 49.0004 12.3831 49.0001C12.079 48.8688 11.7583 48.7884 11.428 48.7622Z" fill="black"/>
<path d="M85.0974 38.7194C85.0369 37.9516 84.6069 37.2815 83.9884 36.8761C83.6419 35.9758 82.7743 35.3557 81.8125 35.2924C81.5706 35.2764 81.3243 35.2992 81.0891 35.3574C80.8707 35.4115 80.6416 35.4974 80.4501 35.6208C80.034 35.5625 79.6078 35.6022 79.2164 35.7618C78.9943 35.8523 78.7913 35.9727 78.6037 36.122C78.404 36.2809 78.2338 36.4731 78.0726 36.6699C77.4382 37.444 76.9931 38.3444 76.6291 39.2716C76.2437 40.2528 75.9338 41.2638 75.599 42.2629C75.2302 43.3636 74.8578 44.4631 74.4836 45.562C74.1083 46.6645 73.7312 47.7663 73.3539 48.8681C73.3164 48.9777 73.2789 49.0873 73.2413 49.1969C73.0425 49.3199 72.8564 49.4622 72.6693 49.6045C72.2678 49.9099 71.8723 50.2233 71.4857 50.5474C70.3015 51.5402 69.2163 52.6406 67.9773 53.5687C65.7098 55.2671 63.1854 56.5688 60.8312 58.1356C59.8683 58.7764 58.9345 59.4707 58.1141 60.2891C57.0505 61.35 56.1835 62.6095 55.5698 63.9805C55.2597 64.6732 55.0175 65.3847 54.8448 66.1226C54.726 66.6304 54.6288 67.143 54.5185 67.6526C54.2267 69.0016 53.8103 70.3095 53.2303 71.5635C52.2271 73.733 50.8731 75.7324 49.4363 77.6348C48.9369 78.2961 48.4227 78.946 47.8989 79.588C47.7677 79.7489 47.9964 79.9803 48.1288 79.818C49.853 77.7047 51.5062 75.4997 52.8168 73.1014C53.5733 71.717 54.1951 70.261 54.5963 68.7334C54.8651 67.7102 55.0172 66.6592 55.3037 65.6408C55.9719 63.2651 57.4472 61.1682 59.3486 59.6154C60.3224 58.8201 61.3894 58.1433 62.4582 57.4847C63.7949 56.6611 65.1561 55.8777 66.469 55.0156C67.3229 54.4549 68.1585 53.8648 68.9495 53.2177C69.5082 52.7606 70.0382 52.2712 70.5711 51.7847C71.1869 51.2226 71.8171 50.6778 72.4735 50.1632C72.9774 49.768 73.4788 49.3413 74.109 49.1701C74.6762 49.0159 75.3299 49.0223 75.7916 49.431C76.1155 49.7178 76.2388 50.0942 76.3377 50.4986C76.4101 50.7948 76.4383 51.0803 76.4261 51.3892C76.38 52.5524 75.8732 53.669 75.4117 54.7172C74.7529 56.2136 74.0046 57.6642 72.8853 58.8722C72.2727 59.5332 71.5858 60.1213 70.8765 60.6756C69.8907 61.4458 68.8582 62.1563 67.8227 62.8575C67.1692 63.3 66.5119 63.7371 65.8536 64.1725C65.6798 64.2875 65.8425 64.5692 66.0177 64.4533C67.2869 63.6138 68.5558 62.7719 69.7928 61.8852C70.6474 61.2726 71.4915 60.6381 72.2718 59.9319C72.8785 59.3827 73.4377 58.7845 73.9229 58.1247C74.4014 57.4741 74.7992 56.7693 75.1547 56.0452C75.6568 55.0222 76.1505 53.9601 76.478 52.8679C76.7154 52.0763 76.8513 51.2429 76.6553 50.4282C76.5796 50.1137 76.4876 49.8116 76.3155 49.5445C76.8234 48.0139 77.3313 46.4832 77.839 44.9525C78.3323 43.4655 78.7892 41.96 79.3398 40.4929C79.5871 39.8338 79.8703 39.1857 80.233 38.5812C80.5865 37.9918 81.0244 37.3449 81.6409 37.0076C82.7429 36.4047 84.2131 36.9613 84.6688 38.1251C84.9792 38.9175 84.7135 39.8798 84.5753 40.691C84.4237 41.5816 84.2484 42.468 84.0642 43.3523C83.599 45.585 83.0759 47.8056 82.5391 50.022C81.9451 52.4743 81.3291 54.9212 80.7078 57.3667C80.4113 58.5336 80.1135 59.7002 79.8161 60.8669C79.5388 61.9547 79.3119 63.0717 78.9722 64.1417C78.5944 65.3318 77.8709 66.3975 76.9094 67.1931C76.4188 67.5991 75.8716 67.8916 75.3077 68.1801C74.7541 68.4633 74.2042 68.7538 73.659 69.0528C71.624 70.1688 69.6529 71.4068 67.8109 72.8209C65.9967 74.2136 64.3143 75.7718 62.8017 77.4879C61.1595 79.3508 59.7189 81.3849 58.4495 83.5177C58.1085 84.0908 57.78 84.6712 57.4615 85.2571C57.3721 85.4216 57.6232 85.5687 57.7128 85.4039C58.9778 83.0767 60.4141 80.838 62.0866 78.7813C63.5833 76.9409 65.2634 75.2542 67.0998 73.7525C68.9439 72.2445 70.9381 70.9284 73.0069 69.7505C73.5404 69.4467 74.079 69.1519 74.6216 68.8647C75.1866 68.5657 75.7771 68.3011 76.3224 67.9671C77.3757 67.3221 78.2459 66.387 78.8113 65.2886C79.3406 64.2602 79.5485 63.0972 79.8317 61.9845C80.1305 60.8103 80.4304 59.6364 80.7294 58.4622C81.3664 55.9603 81.9999 53.4575 82.6128 50.9496C83.1785 48.6345 83.7309 46.3155 84.2278 43.9846C84.4288 43.0415 84.6208 42.0962 84.7899 41.1468C84.8593 40.7576 84.9246 40.3676 84.9828 39.9765C85.044 39.5654 85.1302 39.1355 85.0974 38.7194ZM74.5328 48.7657C74.2146 48.7956 73.9079 48.876 73.6151 49.0017C73.9478 48.0299 74.2806 47.0582 74.6121 46.0859C74.9826 44.9992 75.3516 43.9119 75.7174 42.8236C76.0584 41.8091 76.3783 40.7857 76.7463 39.7806C77.0797 38.8697 77.4756 37.9714 78.0445 37.1806C78.3209 36.7964 78.6348 36.4087 79.0481 36.1666C79.3665 35.9802 79.7271 35.8853 80.0937 35.8842C80.0703 35.9045 80.0467 35.9246 80.0241 35.9457C79.907 36.0555 79.8005 36.1767 79.6972 36.2993C79.4951 36.5393 79.3094 36.7933 79.1403 37.0575C78.4728 38.1005 78.0608 39.2827 77.6717 40.4507C77.2451 41.7308 76.8209 43.0118 76.3943 44.292C75.9405 45.6543 75.486 47.0163 75.0313 48.3783C74.9888 48.5053 74.9464 48.6323 74.904 48.7593C74.7816 48.752 74.6574 48.7539 74.5328 48.7657ZM81.335 36.8518C80.7708 37.2237 80.3483 37.83 80.0026 38.3999C79.2545 39.6333 78.8326 41.0332 78.3815 42.3934C77.848 44.002 77.3144 45.6106 76.7808 47.2192C76.5534 47.9045 76.326 48.5897 76.0986 49.275C75.8454 49.019 75.5341 48.8649 75.1978 48.7967C75.6262 47.5138 76.0544 46.2309 76.4821 44.9478C76.9052 43.6784 77.3279 42.4088 77.7494 41.1388C78.1292 39.9945 78.491 38.832 79.063 37.7656C79.3441 37.2415 79.6758 36.7404 80.0805 36.3031C80.184 36.1912 80.2943 36.0841 80.4171 35.9933C80.4497 35.9693 80.4831 35.9463 80.5169 35.924C80.5313 35.9145 80.5457 35.9042 80.5602 35.8945C80.5656 35.8914 80.5709 35.888 80.5758 35.8842C80.5787 35.883 80.5826 35.8813 80.5885 35.8785C80.6448 35.8522 80.6975 35.8156 80.7534 35.7878C80.8552 35.7373 80.9543 35.6987 81.0672 35.6651C81.1658 35.6357 81.2929 35.6079 81.3777 35.5966C82.2372 35.4814 83.1173 35.9088 83.5597 36.6511C83.3791 36.5775 83.1885 36.524 82.9907 36.4945C82.4164 36.4087 81.8213 36.5313 81.335 36.8518Z" fill="black"/>
</svg>
