<svg width="28" height="28" viewBox="0 0 28 28" fill="none" xmlns="http://www.w3.org/2000/svg">
<path d="M15.1666 5.83333C15.1666 7.122 12.2937 8.16667 8.74992 8.16667C5.20609 8.16667 2.33325 7.122 2.33325 5.83333M15.1666 5.83333C15.1666 4.54467 12.2937 3.5 8.74992 3.5C5.20609 3.5 2.33325 4.54467 2.33325 5.83333M15.1666 5.83333V11.0333C13.7415 11.4613 12.8333 12.1088 12.8333 12.8333M2.33325 5.83333V19.8333C2.33325 21.122 5.20609 22.1667 8.74992 22.1667C10.3012 22.1667 11.7238 21.9665 12.8333 21.6333V12.8333M2.33325 10.5C2.33325 11.7887 5.20609 12.8333 8.74992 12.8333C10.3012 12.8333 11.7238 12.6332 12.8333 12.3M2.33325 15.1667C2.33325 16.4553 5.20609 17.5 8.74992 17.5C10.3012 17.5 11.7238 17.2998 12.8333 16.9667M25.6666 12.8333C25.6666 14.122 22.7937 15.1667 19.2499 15.1667C15.7061 15.1667 12.8333 14.122 12.8333 12.8333M25.6666 12.8333C25.6666 11.5447 22.7937 10.5 19.2499 10.5C15.7061 10.5 12.8333 11.5447 12.8333 12.8333M25.6666 12.8333V22.1667C25.6666 23.4553 22.7937 24.5 19.2499 24.5C15.7061 24.5 12.8333 23.4553 12.8333 22.1667V12.8333M25.6666 17.5C25.6666 18.7887 22.7937 19.8333 19.2499 19.8333C15.7061 19.8333 12.8333 18.7887 12.8333 17.5" stroke="#16B364" stroke-width="2" stroke-linecap="round" stroke-linejoin="round"/>
</svg>
