<svg width="28" height="28" viewBox="0 0 28 28" fill="none" xmlns="http://www.w3.org/2000/svg">
<path d="M13.9999 18.6667V24.5M13.9999 18.6667L20.9999 24.5M13.9999 18.6667L6.99992 24.5M9.33325 8.16667V14M13.9999 10.5V14M18.6666 12.8333V14M25.6666 3.5H2.33325M3.49992 3.5H24.4999V13.0667C24.4999 15.0269 24.4999 16.0069 24.1184 16.7556C23.7829 17.4142 23.2475 17.9496 22.5889 18.2852C21.8402 18.6667 20.8601 18.6667 18.8999 18.6667H9.09992C7.13973 18.6667 6.15964 18.6667 5.41095 18.2852C4.75238 17.9496 4.21695 17.4142 3.8814 16.7556C3.49992 16.0069 3.49992 15.0268 3.49992 13.0667V3.5Z" stroke="#EC4F47" stroke-width="2" stroke-linecap="round" stroke-linejoin="round"/>
</svg>
