<svg width="436" height="229" viewBox="0 0 436 229" fill="none" xmlns="http://www.w3.org/2000/svg">
<path d="M425.583 168.548L416.992 168.731L412.631 168.803C411.171 168.836 409.705 168.803 408.244 168.842H407.956V168.548L407.917 161.201V160.874H408.244L416.914 160.913C419.808 160.913 422.695 160.985 425.583 161.018H425.766V161.201C425.766 162.445 425.714 163.683 425.681 164.907L425.583 168.548ZM425.583 168.548L425.491 164.848C425.459 163.63 425.419 162.425 425.406 161.221L425.583 161.404C422.695 161.437 419.808 161.509 416.914 161.509L408.244 161.548L408.572 161.221V168.548L408.277 168.26C409.705 168.26 411.132 168.26 412.566 168.292L416.829 168.404L425.583 168.548Z" fill="#EBEBEB"/>
<path d="M415.912 177.787L407.321 177.97L402.954 178.042C401.5 178.042 400.033 178.042 398.573 178.081H398.285V177.787V170.46V170.132H398.613L407.282 170.178C410.169 170.178 413.064 170.25 415.951 170.283H416.135V170.46C416.135 171.704 416.082 172.941 416.049 174.166L415.912 177.787ZM415.912 177.787L415.82 174.087C415.788 172.869 415.748 171.664 415.735 170.46L415.912 170.643C413.024 170.676 410.13 170.748 407.243 170.748L398.573 170.787L398.901 170.46V177.787L398.606 177.499C400.033 177.499 401.461 177.499 402.895 177.531L407.197 177.61L415.912 177.787Z" fill="#EBEBEB"/>
<path d="M435.254 177.787L426.663 177.97L422.302 178.042C420.842 178.042 419.375 178.042 417.915 178.081H417.627V177.787L417.588 170.46V170.132H417.915L426.585 170.178C429.479 170.178 432.366 170.25 435.254 170.283H435.437V170.46C435.437 171.704 435.378 172.941 435.352 174.166L435.254 177.787ZM435.254 177.787L435.162 174.087C435.162 172.869 435.09 171.664 435.077 170.46L435.254 170.643C432.366 170.676 429.479 170.748 426.585 170.748L417.915 170.787L418.243 170.46V177.787L417.948 177.499C419.382 177.499 420.803 177.499 422.237 177.531L426.545 177.61L435.254 177.787Z" fill="#EBEBEB"/>
<path d="M178.35 81.3633L169.759 81.5467L165.398 81.6187C163.938 81.6187 162.471 81.6187 161.011 81.6187H160.723V81.324L160.684 73.997V73.6696H161.011L169.68 73.7089C172.574 73.7089 175.462 73.7809 178.35 73.8137H178.533V73.9905C178.533 75.2345 178.474 76.4655 178.441 77.69L178.35 81.3633ZM178.35 81.3633L178.258 77.6572C178.258 76.4393 178.186 75.2345 178.173 74.0363L178.35 74.2131C175.462 74.2131 172.574 74.3178 169.68 74.3178L161.011 74.3637L161.338 74.0363L161.306 81.3633L161.011 81.0687C162.438 81.0687 163.866 81.0687 165.3 81.1079L169.608 81.18L178.35 81.3633Z" fill="#EBEBEB"/>
<path d="M168.665 90.6023L160.075 90.7857L155.707 90.8577C154.254 90.8577 152.787 90.8577 151.327 90.8904H151.039V90.5958L150.986 83.2819V82.9545H151.314L159.983 82.9938C162.871 82.9938 165.765 83.0658 168.652 83.0985H168.836V83.2819C168.836 84.5259 168.783 85.7569 168.751 86.9814L168.665 90.6023ZM168.665 90.6023L168.574 86.8963C168.541 85.6784 168.502 84.4736 168.489 83.2753L168.665 83.4521C165.778 83.4848 162.884 83.5569 159.996 83.5569L151.327 83.6027L151.654 83.2753L151.641 90.6023L151.346 90.3077C152.774 90.3077 154.201 90.3077 155.635 90.347L159.937 90.419L168.665 90.6023Z" fill="#EBEBEB"/>
<path d="M188.021 90.6023L179.43 90.7857L175.069 90.8577C173.609 90.8577 172.149 90.8577 170.682 90.8904H170.394V90.5958L170.354 83.2819V82.9545H170.682L179.351 82.9938C182.245 82.9938 185.133 83.0658 188.021 83.0985H188.204V83.2819C188.204 84.5259 188.145 85.7569 188.119 86.9814L188.021 90.6023ZM188.021 90.6023L187.929 86.8963C187.929 85.6784 187.857 84.4736 187.844 83.2753L188.021 83.4521C185.133 83.4848 182.245 83.5569 179.351 83.5569L170.682 83.6027L171.009 83.2753L170.977 90.6023L170.682 90.3077C172.116 90.3077 173.537 90.3077 174.971 90.347L179.279 90.419L188.021 90.6023Z" fill="#EBEBEB"/>
<path d="M36.9756 129.843L28.3848 130.027L24.0174 130.099C22.5638 130.099 21.0971 130.099 19.6369 130.132H19.375V129.837V122.51V122.182H19.7024L28.3717 122.222C31.2593 122.222 34.1535 122.294 37.041 122.327H37.2244V122.503C37.2244 123.747 37.172 124.978 37.1393 126.203L36.9756 129.843ZM36.9756 129.843L36.8839 126.137C36.8839 124.919 36.8119 123.715 36.7988 122.516L36.9756 122.693C34.088 122.726 31.1938 122.798 28.3062 122.798L19.6369 122.844L19.9643 122.516L19.9316 129.843L19.6369 129.549C21.0643 129.549 22.4918 129.549 23.9257 129.588L28.2277 129.66L36.9756 129.843Z" fill="#EBEBEB"/>
<path d="M324.412 81.3568L315.821 81.5401L311.461 81.6121C310 81.6449 308.534 81.6121 307.073 81.6449H306.785V81.3502L306.746 74.0232V73.6958H307.073L315.743 73.7351C318.637 73.7351 321.525 73.8137 324.412 73.8464H324.595V74.0232C324.595 75.2673 324.543 76.5048 324.51 77.7227L324.412 81.3568ZM324.412 81.3568L324.32 77.6572C324.288 76.4328 324.248 75.228 324.235 74.0297L324.412 74.2065C321.525 74.2393 318.637 74.3113 315.743 74.3178L307.073 74.3571L307.401 74.0297L307.368 81.3568L307.073 81.0621C308.501 81.0621 309.928 81.0621 311.362 81.1014L315.671 81.1734L324.412 81.3568Z" fill="#EBEBEB"/>
<path d="M424.581 10.1949L415.99 10.3783L411.623 10.4503C410.169 10.4503 408.702 10.4503 407.242 10.4896H406.954V10.1949V2.86792V2.54053H407.281L415.951 2.57982C418.838 2.57982 421.733 2.65839 424.62 2.69113H424.803V2.86792C424.803 4.11201 424.751 5.34955 424.718 6.56744L424.581 10.1949ZM424.581 10.1949L424.489 6.49542C424.456 5.27097 424.417 4.06617 424.404 2.86792L424.581 3.04471C421.693 3.04471 418.799 3.14948 415.912 3.15602L407.242 3.19531L407.57 2.86792L407.537 10.1949L407.242 9.90029C408.67 9.90029 410.097 9.90029 411.531 9.93957L415.833 10.0116L424.581 10.1949Z" fill="#EBEBEB"/>
<path d="M434.252 19.434L425.661 19.6173L421.3 19.6893C419.84 19.7221 418.373 19.6893 416.913 19.7221H416.625V19.4274L416.586 12.1004V11.773H416.913L425.583 11.8123C428.477 11.8123 431.364 11.8909 434.252 11.9236H434.435V12.1004C434.435 13.3445 434.376 14.582 434.344 15.7999L434.252 19.434ZM434.252 19.434L434.16 15.7344C434.16 14.51 434.088 13.3052 434.075 12.107L434.252 12.2837C431.364 12.3165 428.477 12.3885 425.583 12.3951L416.913 12.4343L417.241 12.107V19.434L416.946 19.1393C418.373 19.1393 419.801 19.1393 421.235 19.1786L425.543 19.2506L434.252 19.434Z" fill="#EBEBEB"/>
<path d="M17.6333 10.2015L9.03601 10.3849L4.67515 10.4569C3.22153 10.4569 1.75482 10.4569 0.294653 10.4962H0V10.2015V2.87451V2.54712H0.333938L9.00327 2.59295C11.8909 2.59295 14.7785 2.66498 17.6726 2.69772H17.8494V2.87451C17.8494 4.1186 17.7905 5.35614 17.7643 6.58058L17.6333 10.2015ZM17.6333 10.2015L17.5351 6.50201C17.5351 5.27756 17.4631 4.07276 17.45 2.87451L17.6333 3.0513C14.7392 3.09059 11.8516 3.15607 8.96398 3.16261L0.294653 3.2019L0.622044 2.87451L0.582756 10.2015L0.294653 9.94617C1.72208 9.94617 3.14296 9.94617 4.57693 9.94617L8.88541 10.0182L17.6333 10.2015Z" fill="#EBEBEB"/>
<path d="M230.005 101.085C229.202 101.844 228.205 102.368 227.124 102.598C226.469 102.768 225.743 102.866 225.049 102.991H222.678C221.703 102.84 220.714 102.722 219.765 102.532C216.216 101.771 212.855 100.311 209.877 98.2371C202.035 93.0525 195.427 86.208 190.522 78.1876C188.877 75.5411 187.745 72.6092 187.182 69.5445C187.038 68.7391 186.927 67.9272 186.803 67.1152V64.7449C186.999 63.8348 187.156 62.9115 187.399 62.0145C187.637 61.1726 188.088 60.406 188.708 59.7882C188.826 59.893 188.931 59.9781 189.036 60.0829C192.807 63.8501 196.581 67.6172 200.357 71.3844C200.479 71.4861 200.566 71.6236 200.606 71.7775C200.646 71.9314 200.637 72.0939 200.579 72.2422C200.292 73.1758 200.254 74.168 200.467 75.1211C200.681 76.0741 201.139 76.955 201.797 77.6769C205.018 81.3352 208.467 84.7863 212.123 88.0094C212.852 88.6712 213.741 89.1311 214.702 89.3436C215.664 89.5561 216.664 89.5137 217.604 89.2207C217.879 89.1487 218.075 89.1028 218.311 89.3386C222.165 93.2149 226.029 97.0825 229.901 100.941C229.92 100.961 229.946 101.02 230.005 101.085Z" fill="#EBEBEB"/>
<path d="M237.418 92.619V93.4047C237.076 93.8969 236.707 94.3691 236.311 94.8191C235.146 96.0304 233.941 97.2025 232.756 98.3876L232.389 98.7347L220.747 87.0992C222.273 85.5932 223.792 84.0544 225.363 82.555C225.534 82.3969 225.734 82.2746 225.952 82.1954C226.171 82.1161 226.403 82.0816 226.635 82.0938C226.867 82.106 227.094 82.1648 227.303 82.2665C227.512 82.3682 227.699 82.5108 227.851 82.6859C228.729 83.5372 229.58 84.408 230.471 85.2658C232.494 87.2956 234.53 89.3124 236.534 91.3553C236.861 91.7527 237.157 92.1752 237.418 92.619Z" fill="#EBEBEB"/>
<path d="M206.898 64.8038C205.458 66.1985 203.985 67.5605 202.557 68.9093L191.007 57.3655C191.262 57.1363 191.557 56.8941 191.825 56.6322C192.886 55.578 193.927 54.4976 195.008 53.463C195.446 53.0779 195.908 52.7194 196.389 52.3892H197.181C197.623 52.6603 198.043 52.9646 198.439 53.2993C201.267 56.1018 204.085 58.9173 206.892 61.746C207.953 62.8068 207.953 63.7627 206.898 64.8038Z" fill="#EBEBEB"/>
<path d="M13.3252 71.2273H89.1032V23.1531H13.3252V71.2273Z" fill="#EBEBEB"/>
<path d="M103.279 71.2273H89.1025V56.4619L103.279 71.2273Z" fill="#EBEBEB"/>
<path d="M80.3292 31.4623H22.0928V32.379H80.3292V31.4623Z" fill="white"/>
<path d="M52.1931 36.3994H22.0928V37.3161H52.1931V36.3994Z" fill="white"/>
<path d="M69.1848 46.267H22.0928V47.1837H69.1848V46.267Z" fill="white"/>
<path d="M80.3292 51.1974H22.0928V52.1141H80.3292V51.1974Z" fill="white"/>
<path d="M80.3292 56.128H22.0928V57.0447H80.3292V56.128Z" fill="white"/>
<path d="M42.7839 61.0651H22.0928V61.9818H42.7839V61.0651Z" fill="white"/>
<path d="M422.223 90.4255H346.445V132.823H422.223V90.4255Z" fill="#DBDBDB"/>
<path d="M332.27 132.829H346.446V118.064L332.27 132.829Z" fill="#DBDBDB"/>
<path d="M406.089 112.564H355.39V113.48H406.089V112.564Z" fill="white"/>
<path d="M395.665 117.501H355.39V118.417H395.665V117.501Z" fill="white"/>
<path d="M398.704 102.696H355.39V103.613H398.704V102.696Z" fill="white"/>
<path d="M411.943 97.7656H355.39V98.6823H411.943V97.7656Z" fill="white"/>
<path d="M399.843 122.431H355.39V123.348H399.843V122.431Z" fill="white"/>
<path d="M383.939 45.3633H244.791V51.4659H383.939V45.3633Z" fill="#EBEBEB"/>
<path d="M258.691 51.4725H252.589V71.6529H258.691V51.4725Z" fill="#EBEBEB"/>
<path d="M258.691 51.4725H252.589V57.7126H258.691V51.4725Z" fill="#DBDBDB"/>
<path d="M376.14 51.4725H370.037V71.6529H376.14V51.4725Z" fill="#EBEBEB"/>
<path d="M376.14 51.4725H370.037V57.7126H376.14V51.4725Z" fill="#DBDBDB"/>
<path d="M280.562 45.3633V6.47577L270.766 6.47577V45.3633H280.562Z" fill="#C7C7C7"/>
<path d="M280.562 8.66935V4.39362L270.766 4.39362V8.66935H280.562Z" fill="#DBDBDB"/>
<path d="M280.555 15.7344V14.1498H270.759V15.7344H280.555Z" fill="#DBDBDB"/>
<path d="M281.779 40.2691V35.9934H270.766V40.2691H281.779Z" fill="#DBDBDB"/>
<path d="M287.404 45.3634V0L280.562 0V45.3634H287.404Z" fill="#DBDBDB"/>
<path d="M286.009 21.7126V4.26263H281.903V21.7126H286.009Z" fill="#EBEBEB"/>
<path d="M336.073 40.5178L303.812 8.62628L299.002 13.4924L331.263 45.3839L336.073 40.5178Z" fill="#C7C7C7"/>
<path d="M327.56 33.9963L315.15 21.7286L312.264 24.6483L324.674 36.916L327.56 33.9963Z" fill="#DBDBDB"/>
<path d="M299.02 45.3764V10.9152H287.397V45.3764H299.02Z" fill="#A6A6A6"/>
<path d="M299.02 41.7162V38.5078H287.397V41.7162H299.02Z" fill="#C7C7C7"/>
<path d="M299.02 36.4059V35.1619H287.397V36.4059H299.02Z" fill="#C7C7C7"/>
<path d="M270.766 45.3765V12.9909H262.738V45.3765H270.766Z" fill="#A6A6A6"/>
<path d="M270.766 41.9388V38.9203H262.738V41.9388H270.766Z" fill="#C7C7C7"/>
<path d="M270.766 22.6817V19.6631H262.738V22.6817H270.766Z" fill="#C7C7C7"/>
<path d="M270.766 25.9229V24.7508H262.738V25.9229H270.766Z" fill="#C7C7C7"/>
<path d="M369.311 30.2771L368.44 32.5885L367.903 33.9963L367.026 36.3142L363.608 45.3699H345.123L341.692 36.3142L340.815 33.9963L340.285 32.5885L339.407 30.2771L346.23 20.331L342.694 13.7766H366.044L362.488 20.331L369.311 30.2771Z" fill="#DBDBDB"/>
<path d="M369.311 30.2772L368.44 32.5885H340.285L339.407 30.2772H369.311Z" fill="#A6A6A6"/>
<path d="M367.903 33.9963L367.025 36.3143H341.692L340.814 33.9963H367.903Z" fill="#A6A6A6"/>
<path d="M8.78027 221.854L61.032 221.696L113.277 221.637L217.774 221.533L322.271 221.637L374.516 221.696L426.768 221.854L374.516 222.017L322.271 222.076L217.774 222.181L113.277 222.076L61.032 222.017L8.78027 221.854Z" fill="#263238"/>
<path d="M212.104 221.84H292.419L276.41 128.684H216.347L212.104 221.84Z" fill="#DBDBDB"/>
<path d="M212.104 221.84H219.149L223.097 128.684H216.347L212.104 221.84Z" fill="#A6A6A6"/>
<path d="M281.89 146.946C290.979 167.245 312.94 200.933 322.768 192.585C337.468 180.105 347.421 152.499 351.349 141.335C353.556 135.082 321.701 124.618 319.75 130.295C316.973 138.362 312.619 155.223 310.098 157.613C308.789 158.863 298.351 144.216 290.455 137.269C279.055 127.257 278.989 140.464 281.89 146.946Z" fill="#AD6359"/>
<path d="M359.305 131.939C356.47 138.316 345.555 149.101 341.927 150.692C338.3 152.283 319.141 134.977 319.54 130.904C319.94 126.831 331.372 105.499 337.704 102.225C344.036 98.9508 362.245 125.325 359.305 131.939Z" fill="#AD6359"/>
<path d="M321.04 126.425C321.04 126.425 321.498 117.35 319.207 109.676C317.282 103.227 313.7 93.8697 317.124 92.7042C324.17 90.3142 333.101 113.657 333.101 113.657C333.101 113.657 335.393 124.592 328.629 127.578C324.386 129.451 321.04 126.425 321.04 126.425Z" fill="#AD6359"/>
<path d="M328.982 109.211C329.441 112.885 333.507 110.239 333.507 110.239C333.507 110.239 328.576 115.477 330.515 119.059C332.4 122.523 337.193 119.151 337.54 118.915C337.278 119.197 332.878 124.108 335.203 127.525C337.619 131.074 341.849 126.871 342.124 126.596C341.96 126.93 339.904 131.454 342.261 133.654C346.308 137.419 351.887 126 356.182 124.723C356.182 124.723 359.181 131.749 359.305 131.926C359.305 131.926 364.838 121.161 362.795 115.464C362.509 114.632 361.947 113.922 361.204 113.452C360.46 112.982 359.577 112.779 358.703 112.878C358.703 112.878 360.87 109.604 359.129 106.854C358.225 105.446 355.2 105.63 355.2 105.63C355.2 105.63 356.824 102.938 355.121 100.594C353.766 98.715 350.918 99.193 350.918 99.193C350.918 99.193 351.278 95.8798 349.274 94.4131C345.201 91.4535 327.994 101.347 328.982 109.211Z" fill="#AD6359"/>
<path d="M350.426 99.2127C350.485 99.18 350.426 99.0948 350.394 99.1145C343.938 100.987 337.422 105.008 333.271 110.357C333.134 110.534 333.356 110.829 333.546 110.665C338.909 105.983 343.983 102.271 350.426 99.2127Z" fill="#263238"/>
<path d="M355.239 105.544C355.311 105.512 355.239 105.394 355.18 105.413C348.534 107.378 341.324 112.132 337.258 118.843C337.121 119.072 337.226 119.419 337.409 119.17C340.447 114.927 349.424 108.275 355.239 105.544Z" fill="#263238"/>
<path d="M341.999 127.152C346.144 120.866 351.887 116.538 358.428 112.943C358.506 112.898 358.428 112.786 358.356 112.806C354.676 113.69 350.747 116.414 347.879 118.797C345.165 120.953 343.065 123.785 341.79 127.008C341.731 127.152 341.914 127.296 341.999 127.152Z" fill="#263238"/>
<path d="M333.376 110.233C333.213 110.442 333.704 110.449 333.547 110.665C332.892 111.568 329.389 117.363 330.993 119.177C332.302 120.624 335.112 119.891 336.094 119.177L338.549 117.403L336.86 119.95C336.099 121.066 335.525 122.297 335.157 123.597C334.954 124.189 334.879 124.817 334.936 125.44C334.994 126.063 335.183 126.667 335.491 127.211C335.78 127.716 336.234 128.105 336.777 128.314C337.32 128.523 337.918 128.538 338.471 128.357C339.702 127.933 340.805 127.201 341.672 126.229L344.161 123.61L342.668 126.884C342.25 127.79 341.949 128.744 341.771 129.726C341.571 130.648 341.646 131.609 341.987 132.489C342.156 132.876 342.429 133.209 342.775 133.451C343.122 133.692 343.529 133.833 343.951 133.857C344.907 133.76 345.816 133.392 346.57 132.796C348.223 131.533 349.776 130.143 351.213 128.639C351.966 127.905 352.719 127.165 353.511 126.458C354.255 125.714 355.147 125.134 356.13 124.756C355.196 125.229 354.364 125.881 353.681 126.674C352.954 127.427 352.26 128.213 351.566 129.005C350.202 130.641 348.69 132.147 347.048 133.504C346.168 134.251 345.09 134.726 343.945 134.872C343.313 134.878 342.694 134.701 342.16 134.363C341.627 134.025 341.203 133.54 340.939 132.967C340.481 131.887 340.355 130.694 340.579 129.542C340.755 128.447 341.074 127.379 341.528 126.367L342.524 127.021C341.515 128.186 340.219 129.066 338.765 129.575C337.951 129.836 337.07 129.803 336.277 129.483C335.51 129.147 334.862 128.588 334.417 127.879C334.028 127.188 333.789 126.422 333.716 125.632C333.644 124.842 333.74 124.046 333.998 123.296C334.417 121.872 335.069 120.529 335.93 119.321L336.696 120.067C335.387 120.919 332.348 122.084 330.063 120.1C327.536 117.029 332.414 111.228 333.376 110.233Z" fill="#263238"/>
<path d="M333.506 110.239C332.799 110.522 332.053 110.696 331.293 110.757C330.988 110.788 330.68 110.737 330.402 110.609C330.123 110.482 329.884 110.281 329.709 110.03C329.4 109.424 329.275 108.741 329.349 108.065C329.388 107.319 329.466 106.54 329.584 105.734C329.086 106.392 328.733 107.149 328.55 107.954C328.424 108.388 328.385 108.844 328.436 109.293C328.486 109.743 328.625 110.178 328.844 110.573C329.131 110.984 329.535 111.299 330.003 111.477C330.454 111.624 330.937 111.642 331.398 111.529C332.219 111.332 332.957 110.881 333.506 110.239Z" fill="#263238"/>
<path d="M317.811 130.904L350.97 153.998C350.97 153.998 331.162 195.034 318.925 194.922C306.687 194.811 289.008 164.075 282.911 150.79C276.815 137.504 280.45 126.249 292.786 138.349C305.122 150.449 309.542 155.439 309.941 155.275C310.687 154.974 317.811 130.904 317.811 130.904Z" fill="#36FFE4"/>
<path d="M350.97 153.998C350.97 153.998 337.219 182.455 325.571 191.91C323.233 193.809 320.987 194.942 318.925 194.916C306.687 194.811 289.008 164.069 282.879 150.79C279.088 142.566 279.055 135.121 282.499 133.517C284.627 132.528 288.065 133.746 292.76 138.369C305.201 150.554 309.509 155.452 309.915 155.288C310.688 154.974 317.818 130.911 317.818 130.911L350.97 153.998Z" fill="#36FFE4"/>
<path d="M330.449 187.065C330.043 187.536 329.63 187.995 329.218 188.44C325.486 190.789 321.3 192.322 316.934 192.938C315.73 193.071 314.517 193.12 313.306 193.082L312.553 192.611C313.999 192.698 315.449 192.661 316.888 192.5C318.611 192.311 320.305 191.92 321.936 191.334L323.174 190.928L324.372 190.424C324.772 190.254 325.184 190.11 325.57 189.913L326.729 189.324C328.019 188.656 329.261 187.901 330.449 187.065ZM305.292 150.914C301.508 152.635 298.057 155.009 295.097 157.927C293.177 159.819 291.402 161.852 289.787 164.01C289.865 164.154 289.95 164.305 290.042 164.449C291.676 162.255 293.478 160.19 295.431 158.274C297.912 155.837 300.738 153.778 303.819 152.165L304.978 151.576C305.19 151.468 305.409 151.372 305.632 151.288L305.292 150.914ZM333.932 153.003C330.787 151.464 327.497 150.242 324.11 149.356C323.757 149.271 323.403 149.186 323.043 149.114C322.814 149.061 322.578 149.009 322.349 148.97C319.487 148.37 316.549 148.22 313.64 148.524C313.215 148.583 312.796 148.649 312.37 148.727C312.324 148.878 312.272 149.035 312.226 149.179C312.711 149.094 313.202 149.022 313.693 148.963C316.392 148.678 319.119 148.79 321.786 149.297L322.5 149.428C323.004 149.533 323.508 149.644 324.012 149.768C327.37 150.634 330.634 151.832 333.755 153.344C338.43 155.637 342.965 158.206 347.335 161.037C347.401 160.926 347.46 160.815 347.512 160.71C343.143 157.873 338.608 155.3 333.932 153.003ZM337.37 144.53C332.061 144.749 326.888 146.274 322.31 148.97L321.746 149.297C320.59 149.99 319.473 150.746 318.401 151.563C312.789 155.832 308.31 161.319 304.048 166.839C301.913 169.608 299.818 172.398 297.605 175.095C297.448 175.292 297.284 175.482 297.12 175.678L297.369 176.038C297.559 175.816 297.749 175.593 297.932 175.384C300.158 172.679 302.26 169.89 304.401 167.127C308.664 161.627 313.136 156.179 318.689 151.969C319.892 151.051 321.152 150.209 322.46 149.448C322.637 149.336 322.82 149.232 323.004 149.133C324.529 148.277 326.118 147.542 327.757 146.933L328.982 146.488C329.388 146.344 329.813 146.246 330.232 146.121L331.483 145.774L332.793 145.519C334.483 145.138 336.213 144.958 337.946 144.982H338.024L337.37 144.53ZM296.675 142.245C294.387 143.262 291.997 144.028 289.544 144.53L288.267 144.779C287.842 144.858 287.41 144.884 286.958 144.943L285.648 145.093L284.339 145.146C283.143 145.229 281.942 145.207 280.751 145.08L280.868 145.512C286.403 145.916 291.95 144.916 296.996 142.605C296.924 142.481 296.799 142.363 296.675 142.245ZM287.233 134.113C284.914 135.688 282.51 137.133 280.03 138.441C280.03 138.618 280.03 138.794 280.03 138.978C282.676 137.594 285.234 136.05 287.691 134.355C287.534 134.27 287.383 134.185 287.233 134.113Z" fill="white"/>
<path d="M343.132 157.848C342.255 157.122 341.371 156.415 340.48 155.707C338.673 154.28 336.866 152.859 335.059 151.445C331.458 148.636 327.778 145.925 324.072 143.26C321.97 141.741 319.901 140.143 317.733 138.722C317.723 138.715 317.711 138.709 317.699 138.706C317.686 138.703 317.673 138.702 317.66 138.704C317.648 138.705 317.635 138.71 317.624 138.716C317.613 138.723 317.604 138.732 317.596 138.742C317.588 138.752 317.582 138.764 317.579 138.776C317.576 138.789 317.575 138.802 317.577 138.815C317.579 138.828 317.583 138.84 317.59 138.851C317.596 138.862 317.605 138.872 317.615 138.879C319.338 140.399 321.184 141.787 322.972 143.234C324.759 144.681 326.534 146.134 328.347 147.549C331.953 150.351 335.602 153.099 339.295 155.792C340.323 156.552 341.338 157.351 342.406 158.065C342.949 158.431 343.466 158.837 344.016 159.191C344.566 159.544 345.156 159.846 345.693 160.245C345.705 160.252 345.719 160.254 345.733 160.252C345.747 160.249 345.759 160.241 345.768 160.23C345.777 160.219 345.781 160.205 345.781 160.191C345.78 160.177 345.774 160.164 345.765 160.153C344.868 159.4 344.029 158.582 343.132 157.848Z" fill="#263238"/>
<path d="M310.196 154.542C308.931 157.963 307.889 161.462 307.079 165.018C306.647 166.773 306.307 168.548 305.973 170.316C305.619 172.072 305.383 173.851 305.266 175.639C305.266 175.704 305.364 175.704 305.377 175.639C305.927 173.93 306.333 172.149 306.726 170.401C307.119 168.652 307.564 166.891 307.957 165.162C308.749 161.64 309.679 158.15 310.366 154.607C310.371 154.596 310.373 154.584 310.372 154.572C310.372 154.56 310.369 154.549 310.365 154.538C310.36 154.527 310.353 154.517 310.344 154.508C310.335 154.5 310.325 154.494 310.314 154.489C310.303 154.485 310.291 154.483 310.279 154.483C310.267 154.484 310.255 154.486 310.244 154.491C310.233 154.496 310.223 154.503 310.215 154.512C310.207 154.52 310.2 154.531 310.196 154.542Z" fill="#263238"/>
<path opacity="0.1" d="M325.571 191.91C323.233 193.809 320.987 194.942 318.925 194.916C306.687 194.811 289.008 164.069 282.879 150.79C279.088 142.566 279.055 135.121 282.499 133.517L325.571 191.91Z" fill="black"/>
<path d="M306.589 221.84H226.987C226.109 220.23 239.153 150.508 265.999 130.871C271.957 126.517 282.525 129.32 285.459 133.556C300.231 154.843 306.589 221.84 306.589 221.84Z" fill="#36FFE4"/>
<path d="M302.451 190.889C300.464 190.185 298.516 189.374 296.617 188.46C293.952 187.183 291.378 185.768 288.818 184.276L288.445 184.053C285.826 182.501 283.207 180.858 280.64 179.201L280.273 178.965L278.532 177.839C272.639 174.061 266.837 170.172 260.545 167.146C257.435 165.591 254.132 164.455 250.723 163.768C249.012 163.463 247.271 163.366 245.537 163.48C245.105 163.48 244.679 163.571 244.228 163.63C243.933 163.689 243.638 163.728 243.337 163.787C243.383 163.683 243.422 163.584 243.475 163.48C243.71 163.434 243.953 163.395 244.188 163.342C244.62 163.29 245.059 163.224 245.498 163.192C247.249 163.074 249.008 163.168 250.736 163.473C254.181 164.155 257.519 165.293 260.663 166.858C266.988 169.883 272.828 173.773 278.708 177.538L280.437 178.644L280.81 178.88C283.429 180.563 286.049 182.233 288.766 183.811L289.139 184.033C291.627 185.48 294.161 186.855 296.767 188.093C298.588 188.964 300.452 189.74 302.353 190.417L302.451 190.889ZM295.366 157.646L295.098 157.901C290.049 162.818 286.278 168.816 282.722 174.814C281.971 176.093 281.216 177.37 280.457 178.644C280.398 178.756 280.339 178.86 280.273 178.965C279.311 180.589 278.342 182.206 277.333 183.798C276.449 185.199 275.526 186.58 274.544 187.916C274.452 188.041 274.367 188.165 274.276 188.283C273.282 189.625 272.21 190.909 271.067 192.126C269.875 193.391 268.559 194.531 267.138 195.531L266.608 195.904C266.431 196.029 266.235 196.127 266.051 196.238L264.932 196.893C264.16 197.283 263.364 197.622 262.548 197.908C259.245 199.005 255.788 199.564 252.308 199.565C248.84 199.551 245.384 199.158 242.001 198.393C238.727 197.699 235.552 196.769 232.35 195.839C232.35 195.944 232.297 196.049 232.265 196.147C235.46 197.083 238.668 198.026 241.929 198.727C245.352 199.507 248.85 199.911 252.36 199.931C255.879 199.933 259.377 199.372 262.719 198.268C263.553 197.981 264.367 197.638 265.154 197.24L266.3 196.585C266.494 196.482 266.682 196.368 266.863 196.245L267.407 195.865C268.849 194.855 270.185 193.701 271.394 192.421C272.613 191.116 273.755 189.741 274.812 188.302C274.911 188.178 274.996 188.06 275.081 187.936C276.011 186.665 276.888 185.362 277.7 184.04C278.715 182.449 279.664 180.831 280.647 179.214L280.836 178.893L283.109 175.056C286.671 169.065 290.442 163.12 295.438 158.261L295.523 158.182C295.464 157.993 295.412 157.816 295.366 157.646ZM299.144 173.197C298.64 173.851 298.129 174.467 297.612 175.095C295.444 177.821 293.021 180.333 290.377 182.599C289.853 183.012 289.329 183.424 288.786 183.811L288.445 184.053C287.687 184.588 286.893 185.069 286.068 185.493L285.499 185.801C285.309 185.906 285.099 185.978 284.903 186.07L283.711 186.58C282.898 186.874 282.067 187.112 281.223 187.294C279.193 187.729 277.124 187.948 275.048 187.949H274.544C273.313 187.949 272.082 187.851 270.858 187.72C267.402 187.285 264.005 186.47 260.728 185.29C257.454 184.158 254.226 182.763 251.018 181.362C247.824 179.917 244.544 178.673 241.196 177.636C240.207 177.354 239.232 177.106 238.184 176.922L238.086 177.204C239.107 177.394 240.122 177.636 241.111 177.924C244.439 178.964 247.7 180.211 250.874 181.656C254.082 183.038 257.29 184.439 260.597 185.585C263.902 186.774 267.328 187.6 270.812 188.047C271.964 188.178 273.117 188.263 274.269 188.283C274.439 188.283 274.603 188.283 274.773 188.283C276.972 188.318 279.168 188.112 281.321 187.667C282.182 187.477 283.03 187.234 283.862 186.941L285.079 186.417C285.282 186.325 285.485 186.253 285.682 186.148L286.265 185.834C287.159 185.378 288.017 184.855 288.831 184.269L289.172 184.027C289.669 183.667 290.161 183.287 290.645 182.901C293.316 180.626 295.763 178.1 297.952 175.357C298.389 174.82 298.826 174.277 299.262 173.727C299.223 173.557 299.183 173.373 299.144 173.197ZM290.92 144.222C290.462 144.334 290.003 144.439 289.545 144.53L288.268 144.779C287.843 144.858 287.41 144.884 286.959 144.943L285.649 145.093L284.34 145.146C282.61 145.258 280.874 145.165 279.167 144.871C276.488 144.408 273.893 143.549 271.467 142.324L270.812 142.003C270.353 141.767 269.902 141.518 269.456 141.263C266.459 139.503 263.646 137.445 261.062 135.121L260.774 135.409C263.383 137.758 266.219 139.842 269.24 141.63C269.555 141.813 269.895 141.99 270.196 142.16L270.851 142.487C273.44 143.846 276.223 144.798 279.101 145.309C283.091 145.87 287.152 145.647 291.058 144.655C291.031 144.511 290.972 144.367 290.92 144.222ZM286.258 134.761C282.781 137.093 279.07 139.057 275.186 140.621C273.777 141.17 272.336 141.631 270.871 142.003L270.255 142.16C268.553 142.556 266.824 142.825 265.082 142.965L263.773 143.05C263.341 143.083 262.908 143.05 262.463 143.05H261.154L259.844 142.946C258.267 142.854 256.704 142.593 255.182 142.166C255.09 142.291 254.999 142.415 254.914 142.546C260.143 143.86 265.618 143.839 270.838 142.487L271.493 142.324C272.799 141.978 274.084 141.558 275.343 141.066C279.247 139.492 282.977 137.517 286.474 135.173L286.258 134.761ZM305.843 214.991C305.188 214.991 304.481 215.05 303.8 215.07H303.747L303.348 215.103C299.992 215.454 296.731 216.424 293.729 217.964C291.581 219.086 289.529 220.382 287.594 221.84H288.006C289.853 220.473 291.806 219.256 293.847 218.2C296.875 216.654 300.167 215.692 303.551 215.365H303.793H303.95C304.605 215.365 305.221 215.293 305.849 215.299C305.862 215.181 305.856 215.09 305.843 214.991ZM306.183 218.003C305.472 217.1 304.736 216.211 303.976 215.338C303.904 215.247 303.826 215.162 303.747 215.077L303.479 214.762C301.191 212.096 298.56 209.744 295.654 207.769C294.18 206.807 292.592 206.031 290.927 205.458C290.514 205.32 290.082 205.202 289.663 205.085C289.244 204.967 288.805 204.875 288.353 204.816C287.489 204.652 286.605 204.639 285.734 204.554C282.214 204.426 278.702 204.984 275.395 206.198C272.119 207.443 268.99 209.046 266.065 210.978C260.826 214.35 256.053 218.318 250.952 221.84H251.168C256.243 218.377 260.99 214.481 266.176 211.181C269.09 209.263 272.209 207.675 275.474 206.447C278.748 205.248 282.224 204.699 285.708 204.829C286.566 204.921 287.443 204.934 288.294 205.098C288.727 205.157 289.139 205.281 289.565 205.366C289.99 205.451 290.403 205.595 290.809 205.733C292.45 206.301 294.013 207.071 295.464 208.025C298.345 209.987 300.95 212.325 303.21 214.978C303.25 215.024 303.289 215.063 303.322 215.109L303.551 215.365C304.468 216.432 305.365 217.519 306.229 218.639C306.235 218.429 306.209 218.226 306.17 218.003H306.183Z" fill="white"/>
<path d="M255.43 139.416C239.224 158.163 217.381 191.275 226.305 198.596C240.979 210.631 283.835 217.584 293.669 218.75C297.912 219.261 306.411 191.524 303.576 187.936C300.741 184.348 255.43 181.814 255.122 179.031C254.946 177.453 261.827 163.728 266.254 146.894C271.341 127.486 259.994 134.132 255.43 139.416Z" fill="#AD6359"/>
<path d="M296.152 185.651C296.152 185.651 309.156 185.552 317.661 185.886C322.408 186.07 330.515 187.117 333.939 188.852C339.06 191.439 358.821 205.549 355.508 210.414C352.502 214.815 337.062 200.54 337.062 200.54C337.062 200.54 353.917 213.57 349.327 218.219C344.736 222.868 329.434 204.417 329.434 204.417C329.434 204.417 346.459 218.167 340.965 222.227C336.814 225.271 322.016 209.347 322.016 209.347C322.016 209.347 336.558 221.284 332.427 224.604C327.843 228.27 313.274 214.428 313.274 214.428C301.357 221.094 292.976 219.392 287.083 217.473C285.701 216.982 296.152 185.651 296.152 185.651Z" fill="#AD6359"/>
<path d="M331.522 195.662C333.559 197.122 335.628 198.583 337.527 200.246C339.426 201.909 341.266 203.579 343.007 205.386C347.27 209.812 349.247 213.243 349.097 213.047C345.666 208.339 338.961 202.387 337.062 200.75C335.163 199.113 333.349 197.391 331.457 195.76C331.411 195.688 331.477 195.629 331.522 195.662Z" fill="#263238"/>
<path d="M325.499 202.413C328.013 204.377 330.587 206.25 333.016 208.339C335.445 210.428 338.732 213.44 341.004 215.679C341.174 215.849 341.004 216.177 340.821 216.013C338.464 213.865 334.961 210.932 332.577 208.81C330.194 206.689 327.895 204.482 325.447 202.459C325.407 202.452 325.46 202.38 325.499 202.413Z" fill="#263238"/>
<path d="M319.265 207.271C323.266 210.094 326.743 213.649 330.069 217.218C330.239 217.394 330.069 217.421 329.859 217.25C326.33 213.878 323.58 211.207 319.167 207.429C319.114 207.35 319.199 207.213 319.265 207.271Z" fill="#263238"/>
<path d="M294.324 185.238C300.257 185.199 317.681 185.153 323.6 185.611C328.838 186.011 333.153 187.137 337.547 190.044C346.976 196.278 353.052 203.598 354.571 205.759C355.488 207.069 356.817 209.184 355.606 210.65C354.119 212.431 348.652 210.69 342.883 205.471C342.674 205.281 342.805 205.163 343.021 205.34C351.12 211.888 354.342 211.141 355.187 210.022C355.737 209.295 355.187 208.057 354.715 207.075C353.926 205.685 352.963 204.402 351.847 203.258C348.127 199.278 344.011 195.686 339.563 192.539C334.798 188.982 329.122 186.85 323.194 186.391C317.131 185.893 300.355 186.05 294.298 185.467C294.174 185.428 294.194 185.245 294.324 185.238Z" fill="#263238"/>
<path d="M350.289 215.6C349.955 213.983 348.79 212.503 347.867 211.167C346.745 209.487 345.457 207.922 344.023 206.499C343.964 206.44 343.853 206.499 343.912 206.591C345.133 208.019 346.268 209.518 347.31 211.082C347.864 211.943 348.367 212.835 348.816 213.754C349.242 214.638 349.746 215.659 349.523 216.668C349.104 218.593 346.655 218.547 345.208 218.03C344.271 217.677 343.368 217.238 342.51 216.72C341.343 215.976 340.235 215.142 339.197 214.225C339.112 214.147 338.876 214.179 338.968 214.265C341.129 216.321 345.221 220.596 348.561 219.031C349.202 218.748 349.724 218.251 350.04 217.626C350.355 217 350.443 216.284 350.289 215.6Z" fill="#263238"/>
<path d="M296.348 183.968L280.77 219.326C280.77 219.326 226.332 207.036 223.176 196.703C220.02 186.371 237.077 158.726 252.471 141.466C267.609 124.507 269.849 136.011 266.084 149.127C262.319 162.242 256.144 177.361 256.831 178.494C257.519 179.627 296.348 183.968 296.348 183.968Z" fill="#36FFE4"/>
<path d="M260.335 166.701C260.295 166.799 260.263 166.904 260.223 167.002C257.199 165.515 253.995 164.428 250.69 163.768C248.979 163.463 247.238 163.366 245.504 163.48C245.072 163.48 244.646 163.571 244.194 163.63C243.742 163.689 243.343 163.761 242.924 163.879C242.073 164.062 241.267 164.39 240.436 164.645C237.227 165.866 234.284 167.693 231.766 170.027L232.179 169.314C234.58 167.193 237.344 165.523 240.338 164.383C241.176 164.121 241.994 163.787 242.859 163.604C243.284 163.486 243.723 163.434 244.168 163.342C244.613 163.25 245.039 163.224 245.478 163.192C247.229 163.074 248.988 163.168 250.716 163.473C254.049 164.126 257.282 165.211 260.335 166.701ZM289.145 184.033L288.772 183.811L287.279 182.927L286.375 182.822C287.03 183.234 287.744 183.653 288.431 184.053L288.805 184.276C290.769 185.421 292.733 186.521 294.75 187.549L294.907 187.189C292.969 186.188 291.051 185.133 289.145 184.033ZM278.518 181.866C278.125 182.521 277.726 183.176 277.32 183.798C276.436 185.199 275.513 186.58 274.53 187.916C274.439 188.041 274.354 188.165 274.262 188.283C273.268 189.625 272.197 190.909 271.053 192.126C269.862 193.391 268.546 194.531 267.125 195.531L266.594 195.904C266.418 196.029 266.221 196.127 266.038 196.238L264.918 196.893C264.146 197.283 263.35 197.622 262.535 197.908C259.232 199.005 255.774 199.564 252.294 199.565C248.83 199.55 245.379 199.157 242.001 198.393C238.589 197.666 235.243 196.677 231.884 195.701C228.905 194.837 225.906 193.966 222.842 193.397C222.842 193.501 222.842 193.606 222.842 193.704C225.873 194.274 228.84 195.151 231.806 196.009C235.158 196.991 238.517 197.974 241.942 198.727C245.364 199.507 248.862 199.911 252.373 199.931C255.892 199.933 259.389 199.372 262.731 198.268C263.566 197.981 264.379 197.638 265.167 197.24L266.313 196.585C266.507 196.482 266.694 196.368 266.876 196.245L267.419 195.865C268.862 194.855 270.198 193.701 271.407 192.421C272.626 191.116 273.767 189.741 274.825 188.302C274.923 188.178 275.008 188.06 275.093 187.936C276.023 186.665 276.901 185.362 277.713 184.04C278.158 183.346 278.59 182.639 279.022 181.938L278.518 181.866ZM289.597 183.175C289.328 183.385 289.053 183.595 288.772 183.791L288.431 184.033C287.674 184.568 286.879 185.049 286.055 185.474L285.485 185.782C285.295 185.886 285.085 185.958 284.889 186.05L283.697 186.561C282.885 186.854 282.054 187.093 281.209 187.274C279.18 187.709 277.11 187.929 275.035 187.929H274.53C273.299 187.929 272.068 187.831 270.844 187.7C267.388 187.265 263.991 186.45 260.714 185.271C257.441 184.138 254.212 182.743 251.004 181.342C247.811 179.897 244.53 178.653 241.182 177.616C237.823 176.654 234.242 176.13 230.765 176.811C229.659 177.033 228.588 177.406 227.582 177.918C227.517 178.049 227.451 178.186 227.393 178.317C228.469 177.743 229.622 177.329 230.817 177.086C234.235 176.431 237.771 176.942 241.097 177.905C244.426 178.944 247.686 180.191 250.86 181.637C254.068 183.018 257.277 184.42 260.583 185.565C263.892 186.762 267.322 187.594 270.811 188.047C271.964 188.178 273.116 188.263 274.268 188.283C274.439 188.283 274.602 188.283 274.773 188.283C276.971 188.318 279.167 188.112 281.32 187.667C282.181 187.477 283.03 187.234 283.861 186.94L285.079 186.417C285.282 186.325 285.485 186.253 285.681 186.148L286.264 185.834C287.158 185.378 288.016 184.855 288.831 184.269L289.171 184.027C289.512 183.778 289.826 183.516 290.193 183.254L289.597 183.175ZM261.088 135.088C260.806 134.839 260.531 134.597 260.256 134.342L259.903 134.571L260.819 135.389C262.951 137.298 265.228 139.039 267.629 140.595C267.629 140.431 267.629 140.268 267.629 140.11C265.331 138.609 263.148 136.937 261.101 135.108L261.088 135.088ZM265.069 142.946L263.759 143.031C263.327 143.063 262.895 143.031 262.45 143.031H261.14L259.831 142.926C258.099 142.822 256.385 142.519 254.723 142.022C253.996 141.806 253.276 141.557 252.569 141.269L252.412 141.446L252.261 141.616C253.025 141.936 253.805 142.214 254.599 142.448C258.746 143.555 263.077 143.796 267.321 143.155C267.321 142.991 267.367 142.834 267.393 142.671C266.666 142.815 265.874 142.906 265.082 142.965L265.069 142.946ZM285.734 204.535C282.212 204.412 278.7 204.977 275.395 206.198C272.118 207.443 268.989 209.046 266.064 210.978C264.427 212.038 262.829 213.151 261.251 214.297L261.507 214.369C263.039 213.263 264.591 212.195 266.182 211.181C269.096 209.263 272.215 207.675 275.48 206.446C278.754 205.248 282.23 204.699 285.714 204.829C286.166 204.875 286.618 204.901 287.069 204.94L287.194 204.665C286.729 204.626 286.231 204.6 285.747 204.554L285.734 204.535Z" fill="white"/>
<path d="M274.524 213.479C275.054 212.47 275.565 211.462 276.076 210.447C277.101 208.391 278.123 206.331 279.14 204.266C281.157 200.167 283.069 196.016 284.909 191.825C285.963 189.455 287.109 187.111 288.058 184.695C288.069 184.67 288.071 184.642 288.061 184.617C288.052 184.592 288.033 184.572 288.009 184.56C287.985 184.549 287.957 184.548 287.932 184.557C287.907 184.566 287.886 184.585 287.875 184.609C286.742 186.607 285.76 188.695 284.712 190.745C283.665 192.794 282.597 194.824 281.589 196.893C279.581 200.992 277.634 205.124 275.748 209.288C275.218 210.454 274.642 211.606 274.164 212.798C273.915 213.407 273.627 213.996 273.384 214.612C273.142 215.227 272.959 215.856 272.73 216.465C272.727 216.471 272.725 216.478 272.725 216.485C272.724 216.492 272.725 216.499 272.728 216.506C272.73 216.513 272.734 216.519 272.739 216.524C272.744 216.529 272.749 216.534 272.756 216.537C272.762 216.54 272.769 216.541 272.776 216.542C272.784 216.542 272.791 216.541 272.797 216.538C272.804 216.536 272.81 216.532 272.815 216.527C272.821 216.523 272.825 216.517 272.828 216.51C273.358 215.496 273.98 214.513 274.524 213.479Z" fill="#263238"/>
<path d="M281.943 216.897L280.849 219.372L280.816 219.45H280.712C275.559 218.495 270.438 217.349 265.35 216.072C260.263 214.795 255.214 213.348 250.218 211.737C245.205 210.152 240.288 208.277 235.492 206.119C233.086 205.037 230.762 203.781 228.539 202.361C227.429 201.637 226.38 200.825 225.402 199.931C224.394 199.067 223.621 197.961 223.156 196.716C223.735 197.885 224.581 198.901 225.625 199.683C226.658 200.477 227.755 201.184 228.905 201.798C231.179 203.062 233.528 204.188 235.938 205.17C240.75 207.167 245.694 208.869 250.664 210.467C255.633 212.065 260.649 213.551 265.678 214.978C270.707 216.406 275.755 217.82 280.81 219.175L280.679 219.241L281.943 216.897Z" fill="#263238"/>
<path d="M295.726 185.343L296.27 183.935L296.329 184.033C290.868 183.673 285.413 183.234 279.959 182.665C274.505 182.095 269.083 181.473 263.661 180.661C262.306 180.452 260.951 180.229 259.595 179.967C258.94 179.83 258.24 179.699 257.539 179.502C257.362 179.45 257.192 179.397 257.002 179.325C256.893 179.29 256.788 179.244 256.688 179.188C256.611 179.147 256.539 179.099 256.472 179.044C256.401 178.985 256.341 178.914 256.295 178.834C256.268 178.783 256.244 178.731 256.223 178.677C256.219 178.651 256.219 178.625 256.223 178.599C256.197 178.349 256.21 178.097 256.262 177.852C256.295 177.675 256.328 177.485 256.374 177.322C257.068 174.604 257.945 172.038 258.836 169.464C260.617 164.285 262.555 159.171 264.598 154.09C263.02 159.328 261.402 164.567 259.792 169.805C259.019 172.424 258.168 175.043 257.572 177.662C257.533 177.826 257.513 177.976 257.48 178.134C257.448 178.291 257.48 178.474 257.447 178.409C257.44 178.374 257.427 178.341 257.408 178.31C257.408 178.245 257.29 178.179 257.317 178.193C257.284 178.193 257.343 178.206 257.317 178.193L257.48 178.258L257.912 178.396C258.567 178.566 259.222 178.69 259.877 178.821C261.186 179.063 262.555 179.273 263.897 179.476C266.595 179.882 269.297 180.264 272.003 180.622L280.129 181.715C285.544 182.436 290.959 183.208 296.374 184.001H296.473L296.433 184.086L295.726 185.343Z" fill="#263238"/>
<path d="M265.18 157.443C264.796 158.366 264.31 159.245 263.733 160.062C263.19 160.897 262.528 161.65 261.769 162.294C262.266 161.424 262.797 160.599 263.36 159.78C263.906 158.956 264.515 158.174 265.18 157.443Z" fill="#263238"/>
<path d="M281.046 145.349C276.423 146.658 268.094 139.894 264.676 134.257C264.44 133.87 265.37 117.946 265.226 114.77C265.226 114.116 285.354 118.699 285.354 118.699C285.354 118.699 283.698 125.443 283.986 130.976C284.005 131.448 285.505 144.078 281.046 145.349Z" fill="#AD6359"/>
<path d="M264.918 124.743C274.34 131.395 283.52 128.842 283.907 128.724C284.062 125.348 284.528 121.995 285.301 118.706C285.301 118.706 265.134 114.122 265.167 114.777C265.285 116.263 265.121 120.559 264.918 124.743Z" fill="#263238"/>
<path d="M285.256 105.584C285.774 110.285 289.539 113.729 293.657 113.271C297.776 112.813 300.703 108.642 300.205 103.947C299.707 99.252 295.929 95.8013 291.804 96.2596C287.679 96.718 284.739 100.889 285.256 105.584Z" fill="#455A64"/>
<path d="M282.873 106.147C283.449 111.385 287.633 115.202 292.217 114.698C296.8 114.194 300.074 109.552 299.478 104.32C298.882 99.0883 294.724 95.2643 290.134 95.7685C285.544 96.2727 282.297 100.922 282.873 106.147Z" fill="#C7C7C7"/>
<path d="M262.436 90.8446C260.236 97.9031 263.844 118.345 268.84 122.929C276.088 129.575 288.019 130.276 293.676 121.554C299.163 113.094 293.99 86.5426 288.398 82.3717C280.168 76.2167 265.684 80.427 262.436 90.8446Z" fill="#AD6359"/>
<path d="M279.421 103.678C279.421 103.632 279.33 103.763 279.343 103.822C279.644 105.184 279.769 106.802 278.616 107.496C278.577 107.496 278.616 107.587 278.616 107.568C280.116 107.064 279.932 104.922 279.421 103.678Z" fill="#263238"/>
<path d="M277.922 102.48C275.683 102.735 276.357 107.201 278.433 106.965C280.509 106.73 279.801 102.271 277.922 102.48Z" fill="#263238"/>
<path d="M287.371 102.604C287.371 102.552 287.488 102.657 287.495 102.716C287.659 104.104 288.084 105.662 289.4 105.937C289.44 105.937 289.453 106.016 289.4 106.016C287.835 106.029 287.305 103.947 287.371 102.604Z" fill="#263238"/>
<path d="M288.386 100.961C290.586 100.457 291.43 104.89 289.394 105.361C287.358 105.832 286.526 101.4 288.386 100.961Z" fill="#263238"/>
<path d="M275.853 100.706C276.415 100.446 276.961 100.156 277.49 99.8347C278.109 99.6086 278.635 99.1852 278.989 98.6299C279.066 98.4333 279.076 98.2169 279.016 98.0143C278.957 97.8118 278.833 97.6345 278.662 97.5102C278.289 97.3148 277.871 97.2226 277.451 97.2433C277.031 97.2641 276.624 97.3969 276.272 97.6281C275.483 97.9839 274.855 98.6213 274.511 99.4156C274.442 99.601 274.429 99.8025 274.473 99.9952C274.517 100.188 274.616 100.364 274.759 100.501C274.902 100.638 275.081 100.73 275.275 100.767C275.47 100.803 275.671 100.782 275.853 100.706Z" fill="#263238"/>
<path d="M289.8 98.4663C289.182 98.4357 288.566 98.3723 287.954 98.2764C287.297 98.3011 286.65 98.1077 286.114 97.7263C285.967 97.5734 285.875 97.3759 285.852 97.1649C285.83 96.9539 285.878 96.7414 285.989 96.5608C286.264 96.2407 286.618 95.9988 287.016 95.8597C287.413 95.7205 287.841 95.6891 288.255 95.7686C289.119 95.8044 289.939 96.1617 290.553 96.7704C290.685 96.916 290.772 97.0968 290.803 97.2908C290.834 97.4848 290.808 97.6836 290.728 97.8632C290.649 98.0428 290.518 98.1953 290.354 98.3024C290.189 98.4094 289.997 98.4663 289.8 98.4663Z" fill="#263238"/>
<path d="M280.181 116.636C280.561 116.911 280.96 117.291 281.49 117.291C282.003 117.205 282.492 117.01 282.924 116.722C282.932 116.712 282.943 116.706 282.956 116.705C282.968 116.704 282.98 116.707 282.99 116.715C282.999 116.723 283.005 116.734 283.007 116.746C283.008 116.759 283.004 116.771 282.996 116.781C282.841 117.084 282.606 117.338 282.316 117.517C282.026 117.696 281.693 117.792 281.353 117.795C281.06 117.766 280.783 117.65 280.557 117.462C280.331 117.274 280.166 117.023 280.083 116.741C280.024 116.676 280.122 116.597 280.181 116.636Z" fill="#263238"/>
<path d="M281.007 112.282C281.44 112.775 281.971 113.174 282.566 113.452C283.161 113.73 283.807 113.883 284.464 113.899C285.039 113.922 285.615 113.863 286.173 113.723C286.281 113.703 286.386 113.672 286.487 113.631C286.587 113.606 286.685 113.575 286.782 113.539C286.854 113.515 286.916 113.468 286.958 113.405C287.001 113.343 287.022 113.268 287.018 113.192C287.014 113.145 287.003 113.099 286.985 113.055V112.937C286.847 111.87 286.5 110.265 286.5 110.265C286.919 110.403 289.041 110.992 288.923 110.442C287.954 105.859 286.874 100.804 284.942 96.4757C284.929 96.4472 284.906 96.4243 284.877 96.4112C284.849 96.3982 284.817 96.3958 284.787 96.4045C284.756 96.4132 284.73 96.4325 284.713 96.4588C284.696 96.4851 284.689 96.5166 284.693 96.5477C285.453 100.967 286.985 105.224 287.823 109.643C287.068 109.422 286.285 109.31 285.499 109.309C285.354 109.375 286.225 112.393 286.245 112.878C286.249 112.895 286.249 112.913 286.245 112.93C284.49 113.428 283.063 113.094 281.144 112.158C281 112.092 280.908 112.184 281.007 112.282Z" fill="#263238"/>
<path d="M285.459 113.277C284.994 114.125 284.317 114.838 283.495 115.347C283.036 115.608 282.508 115.722 281.982 115.674C280.837 115.55 280.673 114.541 280.725 113.644C280.769 113.167 280.868 112.697 281.02 112.243C282.352 113.051 283.907 113.414 285.459 113.277Z" fill="#263238"/>
<path d="M283.488 115.366C283.029 115.628 282.501 115.742 281.976 115.694C280.83 115.569 280.666 114.561 280.718 113.664C281.943 113.585 283.213 114.214 283.488 115.366Z" fill="#FF99BA"/>
<path opacity="0.2" d="M265.79 98.1061C264.984 100.136 263.328 104.903 262.385 105.237C261.488 98.6103 261.455 92.5994 263.098 88.9064C263.778 87.3811 264.732 85.9939 265.914 84.814C266.051 86.5885 266.647 95.9846 265.79 98.1061Z" fill="#263238"/>
<path d="M283.501 88.6314C282.941 89.6031 282.14 90.4145 281.176 90.9878C280.211 91.5611 279.116 91.877 277.995 91.9053C276.853 91.9352 275.723 91.673 274.711 91.1436C273.699 90.6141 272.839 89.8351 272.213 88.8802C272.209 88.8742 272.205 88.8689 272.199 88.8647C272.194 88.8604 272.188 88.8573 272.181 88.8555C272.174 88.8537 272.167 88.8532 272.16 88.854C272.154 88.8549 272.147 88.8571 272.141 88.8606C272.135 88.864 272.13 88.8686 272.125 88.8741C272.121 88.8796 272.118 88.8858 272.116 88.8925C272.114 88.8992 272.114 88.9062 272.115 88.9131C272.116 88.92 272.118 88.9266 272.121 88.9326C272.691 89.9983 273.541 90.888 274.58 91.5055C275.618 92.1229 276.806 92.4446 278.014 92.4357C279.198 92.3689 280.343 91.9919 281.335 91.3426C282.327 90.6932 283.13 89.7943 283.665 88.7362C283.679 88.7145 283.684 88.6881 283.678 88.663C283.673 88.6378 283.657 88.6158 283.636 88.6019C283.614 88.588 283.588 88.5833 283.562 88.5889C283.537 88.5944 283.515 88.6097 283.501 88.6314Z" fill="#263238"/>
<path d="M297.16 78.0959C296.217 76.356 294.688 75.0061 292.845 74.2851C290.291 73.2767 287.731 73.9512 285.197 74.678C285.183 74.678 285.17 74.6835 285.16 74.6933C285.15 74.7032 285.145 74.7165 285.145 74.7304C285.145 74.7443 285.15 74.7576 285.16 74.7674C285.17 74.7772 285.183 74.7827 285.197 74.7827C287.351 74.1738 289.577 73.6827 291.777 74.3506C293.598 74.8954 295.176 76.0517 296.243 77.6245C297.284 79.2531 297.704 81.2021 297.426 83.1149C297.149 85.0278 296.192 86.7768 294.731 88.0421C293.869 88.7488 292.873 89.2719 291.802 89.5793C290.731 89.8867 289.609 89.9719 288.504 89.8297C288.418 89.8297 288.379 89.9475 288.471 89.9606C289.975 90.2158 291.52 90.0465 292.934 89.4719C294.347 88.8972 295.572 87.9398 296.471 86.7074C297.37 85.4749 297.908 84.0162 298.024 82.495C298.14 80.9738 297.829 79.4504 297.127 78.0959H297.16Z" fill="#263238"/>
<path d="M261.841 94.9239C261.841 94.9239 257.107 88.8409 259.399 84.4473C260.708 81.9526 266.346 81.2651 266.346 81.2651C266.346 81.2651 267.656 78.3775 272.115 76.5048C276.574 74.6321 282.591 75.7322 282.591 75.7322C282.591 75.7322 286.592 72.4059 291.175 74.0559C297.566 76.3608 298.378 85.3378 293.035 89.201C289.277 91.9184 283.069 89.26 283.069 89.26C282.545 89.4237 277.635 93.6929 272.632 89.5219C272.632 89.5219 269.784 93.1101 266.385 91.5386C266.064 92.4992 265.456 93.3383 264.644 93.9435C263.832 94.5486 262.854 94.8907 261.841 94.9239Z" fill="#263238"/>
<path d="M266.7 107.509C266.7 107.509 261.992 100.961 259.019 102.657C256.046 104.353 259.674 113.867 263.184 115.098C263.624 115.292 264.1 115.394 264.581 115.4C265.063 115.406 265.54 115.314 265.985 115.131C266.431 114.947 266.834 114.676 267.172 114.333C267.509 113.989 267.774 113.581 267.95 113.133L266.7 107.509Z" fill="#AD6359"/>
<path d="M260.119 105.368C260.06 105.368 260.053 105.44 260.119 105.459C262.601 106.428 263.93 108.694 264.873 111.051C264.126 110.148 263.124 109.663 261.913 110.553C261.848 110.599 261.913 110.698 261.979 110.684C262.41 110.547 262.873 110.545 263.305 110.68C263.738 110.815 264.118 111.079 264.395 111.437C264.86 112.047 265.258 112.706 265.58 113.402C265.698 113.618 266.091 113.493 266.005 113.245V113.186C266.005 110.003 263.498 105.636 260.119 105.368Z" fill="#263238"/>
<path d="M262.777 102.925C262.777 102.925 260.23 92.7761 262.214 86.5557C264.421 79.6412 272.743 72.8707 282.578 75.7452C282.578 75.7452 271.663 77.153 266.359 86.2741C263.923 90.4648 266.261 102.565 266.261 102.565L262.777 102.925Z" fill="#C7C7C7"/>
<path d="M273.346 106.343C274.341 111.582 271.44 116.519 266.857 117.396C262.273 118.273 257.742 114.777 256.741 109.539C255.739 104.3 258.646 99.3633 263.229 98.4859C267.813 97.6084 272.344 101.118 273.346 106.343Z" fill="#C7C7C7"/>
<path d="M270.871 106.513C271.768 111.208 269.155 115.68 265.037 116.447C260.918 117.213 256.845 114.057 255.948 109.368C255.051 104.68 257.657 100.201 261.776 99.4353C265.894 98.6692 269.967 101.812 270.871 106.513Z" fill="#455A64"/>
<path d="M11.0586 221.84H91.3743L75.3583 128.684H15.3016L11.0586 221.84Z" fill="#DBDBDB"/>
<path d="M11.0586 221.84H18.0975L22.0524 128.684H15.3016L11.0586 221.84Z" fill="#A6A6A6"/>
<path d="M58.662 88.0552C51.204 95.4739 49.0628 107.699 49.0628 107.699C49.0628 107.699 41.9126 120.002 43.9097 126.687C44.4379 128.583 45.4181 130.322 46.7661 131.756C48.1141 133.189 49.7897 134.274 51.6492 134.918L50.9421 131.225C50.9421 131.225 53.3386 135.972 61.3466 137.884C69.3546 139.796 79.949 137.334 85.4622 134.545C88.7299 132.909 91.5182 130.455 93.5554 127.421L91.4928 132.79C91.4928 132.79 99.2651 132.515 103.881 124.245C108.497 115.975 95.2381 104.091 94.1119 101.531C92.9857 98.9704 91.5583 80.3156 71.9344 83.5306C71.9606 83.4848 63.8217 82.9479 58.662 88.0552Z" fill="#263238"/>
<path d="M48.8403 134.388C46.7973 132.862 44.7806 131.114 43.6544 128.953C42.4263 126.713 41.9903 124.125 42.4168 121.606C42.9603 118.588 44.5514 115.923 46.0967 113.323C47.642 110.724 49.5016 108.085 51.0534 105.355C51.1386 105.204 50.9094 105.08 50.8046 105.197C49.061 107.245 47.4346 109.39 45.933 111.621C44.3969 113.661 43.1047 115.874 42.0829 118.214C41.1279 120.37 40.8141 122.754 41.1793 125.083C41.5656 126.976 42.406 128.747 43.6282 130.243C45.0753 132.043 46.9021 133.196 48.7355 134.551C48.8403 134.636 48.9516 134.473 48.8403 134.388Z" fill="#263238"/>
<path d="M105.564 115.694C103.207 108.825 97.0518 104.464 93.2737 98.4728C91.2439 95.2316 89.6659 91.6434 87.0205 88.8278C86.9485 88.7493 86.8176 88.8737 86.883 88.9522C89.0569 91.4863 90.3141 94.5375 91.8856 97.4644C93.5599 100.345 95.5164 103.051 97.7262 105.544C101.616 110.206 106.271 115.726 105.381 122.255C104.968 125.267 103.187 128.606 100.097 129.542C99.9787 129.582 100.051 129.778 100.169 129.726C101.387 129.236 102.494 128.504 103.42 127.573C104.347 126.642 105.074 125.532 105.557 124.311C106.599 121.533 106.601 118.473 105.564 115.694Z" fill="#263238"/>
<path d="M105.845 117.54C106.058 114.939 105.458 112.335 104.13 110.089C102.774 107.875 100.646 106.278 98.5181 104.85C96.0627 103.22 93.4763 101.668 91.9179 99.0817C91.8524 98.9704 91.6953 99.0817 91.7542 99.193C94.2293 103.462 98.9568 105.453 102.119 109.047C105.753 113.153 105.76 119.131 103.259 123.826C101.669 126.688 99.4255 129.133 96.7109 130.963C96.6651 130.963 96.7109 131.061 96.7633 131.029C101.393 127.99 105.472 123.315 105.845 117.54Z" fill="#263238"/>
<path d="M76.1702 148.832C96.0429 159.741 119.831 173.432 134.407 170.211C140.869 168.783 169.889 130.74 171.12 126.34C172.175 122.562 145.898 107.352 142.965 110.331C138.014 115.327 124.631 143.456 122.666 143.928C120.702 144.399 104.018 141.014 86.6533 137.878C69.9433 134.879 62.374 141.263 76.1702 148.832Z" fill="#EB9481"/>
<path d="M168.299 131.081C170.564 128.226 179.81 114.227 181.505 109.755C183.201 105.283 187.169 92.0756 183.882 90.4124C180.595 88.7493 179.142 92.5143 179.142 92.5143C179.142 92.5143 179.934 86.667 176.47 85.3116C173.006 83.9562 170.911 89.8951 170.911 89.8951C170.911 89.8951 171.284 83.8318 167.729 82.6925C164.173 81.5532 163.073 87.9308 163.073 87.9308C163.073 87.9308 163.676 82.4044 160.363 82.6925C156.381 83.0788 156.434 93.3982 154.181 98.1912C153.671 99.2782 142.258 119.524 142.258 119.524L168.299 131.081Z" fill="#EB9481"/>
<path d="M163.152 87.4135C163.152 95.0024 161.842 98.3287 157.913 104.654C157.835 104.772 157.998 104.916 158.097 104.798C162.549 98.9573 164.788 95.0286 163.544 87.3938C163.459 87.0206 163.152 87.0533 163.152 87.4135Z" fill="#263238"/>
<path d="M170.871 89.2993C170.217 97.1567 168.815 100.797 165.142 107.731C165.09 107.83 165.253 107.928 165.312 107.83C169.483 101.334 171.631 97.3531 171.264 89.3975C171.284 89.0373 170.904 88.9391 170.871 89.2993Z" fill="#263238"/>
<path d="M178.919 92.8613C177.721 100.444 176.372 104.477 171.946 110.75C171.934 110.764 171.925 110.78 171.92 110.798C171.915 110.816 171.913 110.834 171.915 110.852C171.917 110.87 171.922 110.888 171.931 110.904C171.939 110.921 171.951 110.935 171.965 110.946C171.979 110.958 171.996 110.967 172.013 110.972C172.031 110.977 172.049 110.979 172.068 110.977C172.086 110.975 172.104 110.97 172.12 110.961C172.136 110.953 172.15 110.941 172.162 110.927C177.302 104.968 179.024 99.9526 179.148 92.9202C179.142 92.4488 178.998 92.3833 178.919 92.8613Z" fill="#263238"/>
<path d="M136.633 121.816C136.633 121.816 136.077 112.328 136.758 108.105C137.439 103.881 145.748 89.0701 149.022 90.6809C153.284 92.7696 150.168 102.264 148.033 106.716C148.033 106.716 157.894 111.523 157.134 118.823C156.375 126.124 136.633 121.816 136.633 121.816Z" fill="#EB9481"/>
<path d="M150.03 91.6368C152.545 96.3447 149.375 102.009 147.621 106.481C147.592 106.545 147.579 106.616 147.584 106.687C147.588 106.757 147.61 106.825 147.647 106.886C147.683 106.946 147.734 106.997 147.794 107.034C147.855 107.07 147.923 107.092 147.994 107.096C151.995 109.388 156.971 113.788 157.397 118.634C157.397 118.663 157.408 118.691 157.429 118.712C157.45 118.733 157.478 118.745 157.508 118.745C157.537 118.745 157.566 118.733 157.587 118.712C157.607 118.691 157.619 118.663 157.619 118.634C157.868 113.395 153.33 108.655 148.793 106.422C150.652 101.838 153.592 96.0435 150.102 91.6106C150.056 91.591 150.017 91.6106 150.03 91.6368Z" fill="#263238"/>
<path d="M117.94 142.376L94.0204 162.425C94.0204 162.425 79.4188 154.83 68.6345 146.102C57.8502 137.373 69.7935 133.13 88.3107 136.241C106.828 139.351 117.94 142.376 117.94 142.376Z" fill="#36FFE4"/>
<path d="M89.6068 146.403C88.929 145.478 88.1444 144.636 87.2692 143.895C88.2378 145.977 89.6371 147.829 91.3747 149.33C90.9053 148.287 90.3117 147.304 89.6068 146.403ZM68.6537 146.115L68.9418 146.337C69.1317 146.134 69.3216 145.918 69.4984 145.683C69.1972 145.82 68.9156 145.964 68.6406 146.141L68.6537 146.115ZM108.694 146.246C107.562 146.08 106.415 146.044 105.276 146.141C106.345 146.544 107.456 146.823 108.589 146.973C109.72 147.144 110.867 147.181 112.007 147.084C110.934 146.677 109.818 146.395 108.681 146.246H108.694ZM100.686 138.493C100.671 138.93 100.686 139.368 100.732 139.803C100.891 139.41 101.027 139.007 101.138 138.598L100.686 138.493Z" fill="white"/>
<path d="M88.664 158.143C93.529 153.468 98.728 149.127 103.999 144.897C105.492 143.705 107.011 142.54 108.583 141.42C108.628 141.387 108.687 141.42 108.641 141.479C106.166 143.764 103.593 145.945 101.033 148.138C98.4727 150.332 95.8797 152.525 93.254 154.653C91.7677 155.858 90.2879 157.063 88.7819 158.235C88.6902 158.281 88.6051 158.202 88.664 158.143Z" fill="#263238"/>
<path d="M104.182 153.907L94.0135 162.419C94.0135 162.419 79.4118 154.83 68.6275 146.102C64.797 143.005 63.8345 140.477 65.0066 138.637L104.182 153.907Z" fill="#263238"/>
<path d="M99.2584 221.762H23.0352C23.0352 221.762 39.5946 157.809 54.9231 139.803C55.2636 139.39 55.6172 138.997 55.9707 138.631C56.0428 138.546 56.1083 138.487 56.1803 138.415C57.3669 137.147 58.7484 136.077 60.2727 135.245C60.5411 135.101 60.8096 134.964 61.0912 134.846C66.9842 132.129 73.2308 134.381 77.7292 138.231C79.1566 139.449 95.3167 160.494 96.7179 168.489C97.9554 175.567 93.1755 183.169 93.1755 183.169L99.2584 221.762Z" fill="#36FFE4"/>
<path d="M81.7557 180.432C78.5102 180.749 75.2929 181.307 72.1304 182.102C70.5589 182.521 69.0267 183.005 67.488 183.523C66.7219 183.784 65.9558 184.02 65.1831 184.249C64.3787 184.511 63.5453 184.674 62.7015 184.734C62.6859 184.734 62.6709 184.74 62.6598 184.751C62.6488 184.762 62.6426 184.777 62.6426 184.793C62.6426 184.808 62.6488 184.823 62.6598 184.834C62.6709 184.846 62.6859 184.852 62.7015 184.852C63.5009 184.886 64.3017 184.864 65.098 184.786C65.8647 184.69 66.6239 184.542 67.3701 184.341C68.9678 183.928 70.5393 183.45 72.1304 183.031C75.3388 182.18 78.5407 181.329 81.8015 180.707C81.838 180.701 81.8706 180.681 81.892 180.65C81.9135 180.62 81.9222 180.583 81.9161 180.547C81.91 180.51 81.8897 180.478 81.8596 180.456C81.8295 180.435 81.7922 180.426 81.7557 180.432Z" fill="#263238"/>
<path d="M89.8093 183.241C87.1306 182.984 84.4396 182.876 81.7489 182.92C80.4394 182.953 79.0709 183.058 77.7286 183.195C77.0738 183.267 76.419 183.346 75.8166 183.431C75.2142 183.516 74.4285 183.712 73.7278 183.798C73.6558 183.798 73.6558 183.922 73.7278 183.915C74.3826 183.856 75.0702 183.915 75.738 183.883L77.7482 183.811C79.0578 183.771 80.4263 183.739 81.7686 183.68C84.4532 183.568 87.1313 183.483 89.8159 183.457C89.9599 183.464 89.9468 183.254 89.8093 183.241Z" fill="#263238"/>
<path d="M47.6806 154.836C47.3205 154.378 46.9538 153.926 46.5544 153.527L46.2728 154.116C46.5347 154.522 46.8163 154.922 47.1044 155.308C47.7827 156.227 48.5674 157.062 49.442 157.796C48.964 156.749 48.3734 155.756 47.6806 154.836ZM56.5267 138.061C56.3934 139.084 56.3714 140.118 56.4612 141.145C56.868 140.071 57.1429 138.952 57.2797 137.812C57.2797 137.642 57.3256 137.465 57.3452 137.295C57.0702 137.537 56.7952 137.793 56.5267 138.061ZM79.6602 159.368C79.2524 160.44 78.9712 161.556 78.8221 162.694C78.6571 163.828 78.6198 164.976 78.7108 166.118C79.1219 165.048 79.399 163.931 79.5358 162.792C79.7155 161.66 79.7573 160.51 79.6602 159.368ZM65.0913 196.245C64.6878 197.313 64.4109 198.425 64.2663 199.558C64.1002 200.692 64.065 201.841 64.1615 202.983C64.9397 200.827 65.2565 198.531 65.0913 196.245ZM40.3274 168.404C39.9276 169.48 39.6508 170.598 39.5024 171.736C39.3357 172.868 39.3006 174.015 39.3976 175.154C39.7983 174.081 40.073 172.965 40.2161 171.828C40.3877 170.695 40.4251 169.546 40.3274 168.404ZM60.8221 163.728C59.6906 163.562 58.5437 163.527 57.4041 163.624C58.473 164.027 59.5847 164.306 60.7173 164.455C61.8483 164.627 62.9956 164.664 64.1353 164.567C63.0701 164.152 61.9605 163.862 60.8286 163.702L60.8221 163.728ZM88.2444 195.158C87.1107 194.992 85.9616 194.957 84.8199 195.053C86.9759 195.832 89.2714 196.148 91.5576 195.983C90.4909 195.579 89.3815 195.297 88.251 195.145L88.2444 195.158ZM37.0535 192.139C35.9414 191.978 34.8151 191.939 33.6944 192.022H33.629H33.6879C34.7456 192.412 35.8438 192.682 36.9618 192.827C38.0933 192.993 39.2402 193.028 40.3798 192.932C39.3054 192.54 38.1891 192.274 37.0535 192.139ZM65.8115 219.175C64.68 219.009 63.5331 218.974 62.3936 219.071C64.5515 219.85 66.8498 220.165 69.1378 219.994C68.0552 219.594 66.9304 219.32 65.7854 219.175H65.8115ZM34.8796 215.862C33.7459 215.696 32.5968 215.661 31.4551 215.757C32.5246 216.156 33.6363 216.431 34.7683 216.576C35.9011 216.752 37.0513 216.787 38.1928 216.681C37.1148 216.28 35.9943 216.006 34.8534 215.862H34.8796ZM66.558 147.451C65.6356 148.136 64.7943 148.925 64.0502 149.801C65.0949 149.326 66.0833 148.735 66.9967 148.04C67.9173 147.356 68.7527 146.565 69.4849 145.683C68.4472 146.162 67.4656 146.755 66.558 147.451ZM74.7166 182.501C73.7964 183.178 72.961 183.962 72.2284 184.839C73.2701 184.366 74.2525 183.773 75.1553 183.071C76.077 182.396 76.9127 181.611 77.6435 180.733C76.6025 181.212 75.6204 181.81 74.7166 182.514V182.501ZM46.1091 203.926C45.1837 204.601 44.3457 205.388 43.6144 206.27C44.6521 205.79 45.6337 205.197 46.5413 204.502C47.4618 203.819 48.3029 203.034 49.0491 202.164C47.9979 202.629 47.01 203.225 46.1091 203.939V203.926ZM93.6202 173.105C92.9424 172.18 92.1578 171.338 91.2826 170.597C92.2512 172.679 93.6505 174.531 95.3881 176.032C94.9178 174.993 94.3242 174.015 93.6202 173.118V173.105ZM83.8705 212.765C83.1873 211.845 82.4032 211.003 81.5329 210.257C81.9919 211.309 82.5839 212.297 83.2942 213.197C83.9707 214.119 84.7556 214.957 85.6318 215.692C85.1543 214.654 84.5636 213.673 83.8705 212.765ZM55.1648 181.571C54.4852 180.648 53.7008 179.806 52.8272 179.063C53.2915 180.113 53.8854 181.101 54.5951 182.003C55.2697 182.927 56.0547 183.765 56.9327 184.498C56.4559 183.459 55.8628 182.477 55.1648 181.571Z" fill="white"/>
<path d="M53.3645 140.3C38.7039 152.119 1.15863 198.956 9.62498 209.779C18.0913 220.603 74.3634 215.672 90.7002 210.552C95.5587 209.033 82.3059 178.199 77.0545 176.778C72.6806 175.593 48.4274 182.763 47.956 181.362C47.4256 179.777 53.9472 171.01 62.2368 152.014C71.7966 130.105 59.8403 135.082 53.3645 140.3Z" fill="#EB9481"/>
<path d="M103.54 174.205C114.743 175.515 117.421 177.551 127.459 173.622C134.046 171.049 138.519 174.146 133.699 179.705C125.842 188.8 111.018 190.182 105.747 189.16L103.54 174.205Z" fill="#EB9481"/>
<path d="M72.1172 177.171C72.1172 177.171 86.0182 173.576 98.0924 173.773C106.447 173.91 124.585 176.235 136.895 197.915C139.815 203.055 140.332 212.457 132.508 205.772C126.955 201.038 124.867 196.356 121.134 194.189C121.134 194.189 120.368 206.217 115.104 208.948C110.499 211.328 105.731 213.379 100.836 215.083C100.317 214.259 99.8537 213.401 99.4478 212.516C99.4478 212.516 94.2881 214.598 86.3522 211.711L72.1172 177.171Z" fill="#EB9481"/>
<path d="M106.049 175.181C109.322 178.114 116.08 184.439 119.799 191.55C123.963 199.447 129.856 215.777 123.996 218.796C119.701 221.009 116.898 214.965 116.898 214.965C116.898 214.965 117.913 222.233 113.624 223.379C109.696 224.427 107.803 219.621 107.803 219.621C107.803 219.621 107.659 224.132 103.678 224.414C98.8852 224.741 99.9722 215.247 94.8256 211.377C93.6666 210.506 106.049 175.181 106.049 175.181Z" fill="#EB9481"/>
<path d="M110.75 194.595C113.369 197.869 117.369 206.774 117.029 214.847C117.029 215.031 116.878 215.122 116.852 214.952C115.624 207.961 113.55 201.145 110.678 194.654C110.67 194.644 110.666 194.632 110.667 194.62C110.668 194.607 110.675 194.596 110.684 194.588C110.694 194.581 110.706 194.577 110.718 194.578C110.73 194.579 110.742 194.585 110.75 194.595Z" fill="#263238"/>
<path d="M102.899 198.995C104.863 202.04 108.589 211.436 107.96 219.588C107.96 219.771 107.797 219.85 107.777 219.68C106.912 212.63 105.249 205.702 102.82 199.028C102.82 199.019 102.823 199.01 102.828 199.002C102.833 198.994 102.84 198.988 102.849 198.985C102.857 198.981 102.866 198.98 102.875 198.982C102.884 198.984 102.892 198.989 102.899 198.995Z" fill="#263238"/>
<path d="M121.154 194.137C124.428 196.101 126.255 198.412 128.69 201.248C129.881 202.667 131.149 204.02 132.488 205.301C133.719 206.447 135.533 208.169 137.379 207.35C138.407 206.892 138.689 205.661 138.774 204.639C138.855 203.491 138.687 202.339 138.283 201.261C138.283 201.208 138.361 201.169 138.381 201.228C138.783 202.179 139.048 203.182 139.167 204.207C139.322 205.171 139.183 206.159 138.767 207.042C137.746 208.85 135.389 208.509 133.909 207.56C133.034 206.953 132.22 206.263 131.48 205.497C130.753 204.783 130.059 204.037 129.384 203.277C128.003 201.706 126.713 200.062 125.351 198.484C124.016 196.979 122.586 195.562 121.069 194.241C121.01 194.189 121.088 194.097 121.154 194.137Z" fill="#263238"/>
<path d="M125.318 208.45C124.932 206.204 122.156 196.553 121.056 194.202C121.049 194.19 121.047 194.175 121.051 194.162C121.054 194.148 121.063 194.137 121.075 194.13C121.088 194.123 121.102 194.121 121.115 194.125C121.129 194.129 121.14 194.137 121.147 194.15C123.223 197.469 125.842 205.53 126.301 208.011C126.759 210.493 127.198 213.564 126.562 216.006C125.606 219.686 122.987 219.752 122.038 219.699C120.916 219.617 119.856 219.155 119.032 218.39C118.094 217.411 117.364 216.253 116.885 214.985C116.885 214.926 116.944 214.874 116.976 214.932C117.88 216.713 119.628 218.697 121.697 218.953C122.156 219.024 122.623 219.002 123.073 218.89C123.523 218.778 123.946 218.576 124.317 218.298C125.094 217.554 125.575 216.554 125.672 215.482C125.958 213.135 125.838 210.757 125.318 208.45Z" fill="#263238"/>
<path d="M107.96 219.588C108.36 220.158 109.021 221.958 110.612 222.718C111.165 223.033 111.787 223.209 112.423 223.231C113.06 223.253 113.692 223.119 114.266 222.842C115.359 222.163 116.146 221.085 116.459 219.837C116.724 218.239 116.866 216.624 116.885 215.005C116.885 214.926 116.983 214.919 116.99 215.005C117.193 216.761 117.132 218.538 116.806 220.276C116.652 220.956 116.364 221.6 115.958 222.167C115.552 222.735 115.037 223.216 114.442 223.582C113.813 223.926 113.1 224.089 112.384 224.053C111.668 224.017 110.975 223.784 110.383 223.379C109.787 222.967 108.058 221.101 107.764 219.634C107.77 219.588 107.94 219.562 107.96 219.588Z" fill="#263238"/>
<path d="M95.3298 210.801C95.8033 211.325 96.2142 211.903 96.5543 212.523C96.9406 213.178 97.3073 213.8 97.6543 214.454C98.344 215.778 98.8948 217.169 99.2978 218.606C99.7169 220.046 100.044 221.618 101.033 222.803C101.496 223.389 102.131 223.814 102.849 224.019C103.567 224.223 104.332 224.196 105.034 223.942C105.777 223.647 106.395 223.103 106.782 222.404C107.231 221.649 107.531 220.816 107.666 219.948C107.663 219.94 107.662 219.932 107.663 219.923C107.664 219.915 107.667 219.907 107.672 219.9C107.677 219.893 107.683 219.887 107.691 219.883C107.698 219.879 107.707 219.877 107.715 219.877C107.723 219.877 107.732 219.879 107.739 219.883C107.747 219.887 107.753 219.893 107.758 219.9C107.763 219.907 107.766 219.915 107.767 219.923C107.768 219.932 107.767 219.94 107.764 219.948C107.708 220.735 107.572 221.514 107.358 222.273C107.111 222.955 106.688 223.56 106.134 224.027C105.552 224.472 104.86 224.747 104.132 224.823C103.404 224.899 102.67 224.774 102.009 224.46C100.542 223.805 99.7169 222.325 99.2061 220.858C98.6365 219.228 98.2567 217.545 97.6085 215.934C97.2745 215.083 96.9537 214.232 96.5477 213.413C96.1418 212.595 95.5786 211.744 95.2382 210.866C95.1989 210.814 95.2774 210.742 95.3298 210.801Z" fill="#263238"/>
<path d="M90.2158 212.831C92.2859 213.13 94.3796 213.233 96.469 213.138C96.5345 213.138 96.5738 213.328 96.5083 213.341C95.4725 213.535 94.4187 213.617 93.3653 213.584C92.2974 213.539 91.2423 213.333 90.2355 212.975C90.1504 212.929 90.1504 212.818 90.2158 212.831Z" fill="#263238"/>
<path d="M25.9225 188.375C29.4227 186.685 33.0399 185.25 36.746 184.079C40.4134 182.933 44.1602 182.057 47.9559 181.46C50.1232 181.1 52.2971 180.845 54.5037 180.576C54.5692 180.576 54.5823 180.668 54.5037 180.674C50.6898 181.292 46.9142 182.127 43.1956 183.176C39.4939 184.184 35.8141 185.26 32.156 186.404C30.0869 187.058 28.044 187.792 25.9945 188.505C25.9225 188.558 25.857 188.42 25.9225 188.375Z" fill="#263238"/>
<path d="M22.7334 168.738L53.7636 172.11C53.7636 172.11 61.6799 157.704 65.7985 144.432C69.9171 131.16 58.2226 133.739 44.5573 146.606C30.892 159.472 22.7334 168.738 22.7334 168.738Z" fill="#36FFE4"/>
<path d="M22.7334 168.738L53.7636 172.11C53.7636 172.11 61.6799 157.704 65.7985 144.432C69.9171 131.16 58.2226 133.739 44.5573 146.606C30.892 159.472 22.7334 168.738 22.7334 168.738Z" fill="#36FFE4"/>
<path d="M56.5793 137.629C56.5825 137.661 56.5825 137.694 56.5793 137.727C56.4131 138.861 56.378 140.01 56.4745 141.152C56.8813 140.078 57.1561 138.959 57.293 137.819C57.293 137.622 57.3454 137.432 57.365 137.236L56.5793 137.629ZM40.3276 168.404C40.0433 169.118 39.8242 169.856 39.6728 170.61L40.3276 170.676C40.3995 169.92 40.3995 169.159 40.3276 168.404ZM29.5629 161.417L29.2617 161.731C29.6022 161.731 29.9165 161.731 30.2897 161.672C30.0409 161.574 29.8052 161.489 29.5629 161.417ZM57.4108 163.597C57.5942 163.669 57.7841 163.742 57.974 163.8C58.0078 163.715 58.0472 163.632 58.0918 163.552C57.8692 163.558 57.64 163.571 57.4108 163.597ZM47.6808 154.836C46.9976 153.916 46.2136 153.075 45.3432 152.329C45.8036 153.381 46.3955 154.371 47.1046 155.275C47.7829 156.194 48.5675 157.029 49.4421 157.763C48.9621 156.727 48.3716 155.746 47.6808 154.836Z" fill="white"/>
<path d="M52.5072 171.822C52.6774 171.822 53.8168 171.822 53.8168 171.822C53.9543 171.422 56.6258 165.274 57.2806 163.964C58.6294 161.273 60.1354 158.654 61.6021 156.028C61.648 155.943 61.7789 156.028 61.7331 156.087C60.6985 158.379 59.7032 160.671 58.649 162.975C58.911 162.668 59.1729 162.36 59.4282 162.046C59.9455 161.391 60.417 160.736 60.908 160.042C60.9539 159.983 61.0456 160.042 61.0128 160.114C60.5442 161.061 59.9519 161.942 59.2514 162.733C58.9541 163.081 58.6324 163.407 58.2889 163.709C58.2038 163.899 58.1187 164.095 58.027 164.278C57.3722 165.588 54.1441 172.188 54.0263 172.182L52.5334 171.998C52.4221 172.025 52.4221 171.815 52.5072 171.822Z" fill="#263238"/>
<path d="M28.5813 163.467C35.3125 163.918 42.024 164.842 48.6962 165.889C50.5907 166.19 52.4721 166.533 54.3405 166.917C54.3928 166.917 54.3928 167.009 54.3405 167.002C50.988 166.708 47.642 166.276 44.2961 165.863C40.9501 165.451 37.578 165.005 34.2321 164.475C32.3463 164.187 30.454 163.899 28.5747 163.578C28.4962 163.584 28.4962 163.46 28.5813 163.467Z" fill="#263238"/>
<path d="M64.2471 135.73C64.3649 137.092 69.433 146.56 75.5028 147.143C77.4671 147.326 78.9797 136.581 78.9797 136.581L79.2678 135.815L83.3471 125.063L71.4955 114.816L69.7734 113.441C69.7734 113.441 68.8502 116.453 67.7436 120.218C67.6912 120.395 67.6323 120.572 67.5799 120.755C67.5275 120.938 67.449 121.168 67.39 121.364C67.2198 121.927 67.043 122.497 66.8858 123.073C66.7614 123.512 66.637 123.937 66.5192 124.383C66.4013 124.828 66.2834 125.299 66.1525 125.758C65.2911 129.034 64.6545 132.366 64.2471 135.73Z" fill="#EB9481"/>
<path d="M67.7432 120.218C68.418 123.498 69.7983 126.592 71.7883 129.285C73.7783 131.978 76.3303 134.207 79.2673 135.815L83.3466 125.063L71.4951 114.816L69.773 113.441C69.773 113.441 68.8497 116.453 67.7432 120.218Z" fill="#263238"/>
<path d="M86.9352 108.55C87.9764 113.133 92.1015 116.152 96.148 115.242C100.195 114.332 102.624 109.846 101.583 105.237C100.542 100.627 96.4165 97.6281 92.3699 98.5448C88.3234 99.4615 85.8941 103.934 86.9352 108.55Z" fill="#455A64"/>
<path d="M84.6242 109.375C85.7897 114.502 90.3732 117.835 94.8781 116.82C99.383 115.805 102.081 110.822 100.922 105.689C99.7628 100.555 95.1728 97.2287 90.6744 98.2436C86.1761 99.2585 83.4653 104.235 84.6242 109.375Z" fill="#C7C7C7"/>
<path d="M97.8636 102.814C103.364 122.228 92.3568 127.696 88.1662 128.901C84.3619 129.974 71.2794 133.144 63.8017 114.397C56.3241 95.6507 63.6119 86.9552 72.1764 84.0414C80.741 81.1276 92.3634 83.3932 97.8636 102.814Z" fill="#EB9481"/>
<path d="M91.1059 100.372C90.6446 100.417 90.1812 100.437 89.7177 100.431C89.2304 100.524 88.7261 100.452 88.2837 100.228C88.1578 100.13 88.0676 99.9939 88.0273 99.8399C87.9871 99.6859 87.9989 99.5229 88.0611 99.3764C88.2281 99.1066 88.4645 98.8865 88.7455 98.7391C89.0265 98.5917 89.3419 98.5223 89.6588 98.5383C90.3038 98.4666 90.9525 98.6369 91.4791 99.0162C91.5927 99.1113 91.6766 99.2371 91.7208 99.3785C91.7649 99.5199 91.7675 99.6711 91.7281 99.8139C91.6888 99.9568 91.6092 100.085 91.4989 100.184C91.3886 100.283 91.2521 100.348 91.1059 100.372Z" fill="#263238"/>
<path d="M78.3051 104.89C78.75 104.752 79.1872 104.59 79.6147 104.405C80.0994 104.298 80.5362 104.036 80.8588 103.659C80.9352 103.519 80.9639 103.358 80.9402 103.201C80.9165 103.044 80.8419 102.899 80.7278 102.788C80.4681 102.605 80.1644 102.495 79.8479 102.468C79.5314 102.442 79.2136 102.5 78.9271 102.637C78.3061 102.824 77.7765 103.235 77.4408 103.79C77.3718 103.92 77.3423 104.069 77.3557 104.216C77.3691 104.363 77.4248 104.504 77.5162 104.62C77.6076 104.736 77.7308 104.824 77.8708 104.871C78.0108 104.919 78.1616 104.926 78.3051 104.89Z" fill="#263238"/>
<path d="M82.2336 108.314C82.2336 108.262 82.1485 108.406 82.1681 108.458C82.5872 109.768 82.8229 111.339 81.7753 112.118C81.7425 112.118 81.7753 112.204 81.808 112.19C83.1962 111.568 82.8295 109.473 82.2336 108.314Z" fill="#263238"/>
<path d="M80.6495 107.267C78.4756 107.712 79.5232 112.02 81.54 111.608C83.5567 111.195 82.4698 106.893 80.6495 107.267Z" fill="#263238"/>
<path d="M79.8573 107.699C79.543 108.039 79.2746 108.556 78.8359 108.714C78.3972 108.871 77.8144 108.537 77.3692 108.183C77.3233 108.15 77.2906 108.183 77.3037 108.255C77.4936 109.08 78.0174 109.853 78.9341 109.761C79.8508 109.67 80.1716 108.805 80.1716 107.921C80.1782 107.758 79.9883 107.568 79.8573 107.699Z" fill="#263238"/>
<path d="M89.8887 105.95C89.8887 105.898 90.0131 105.99 90.0196 106.042C90.2946 107.391 90.8316 108.89 92.1477 109.048C92.187 109.048 92.2001 109.12 92.1477 109.126C90.6286 109.264 89.9345 107.267 89.8887 105.95Z" fill="#263238"/>
<path d="M90.7459 104.274C92.8543 103.619 94.0198 107.875 92.0555 108.497C90.0911 109.12 88.9845 104.831 90.7459 104.274Z" fill="#263238"/>
<path d="M91.7281 104.307C92.1275 104.438 92.5728 104.759 92.9853 104.674C93.3978 104.588 93.6794 104.019 93.8561 103.488C93.8561 103.436 93.9216 103.488 93.9347 103.488C94.1835 104.3 94.1508 105.224 93.4043 105.597C92.6579 105.97 92.0097 105.381 91.5906 104.621C91.512 104.516 91.5644 104.235 91.7281 104.307Z" fill="#263238"/>
<path d="M85.2589 119.079C85.6386 119.334 86.0446 119.734 86.5684 119.648C87.0694 119.54 87.5421 119.328 87.9566 119.026C87.9644 119.017 87.9757 119.011 87.988 119.01C88.0002 119.008 88.0125 119.012 88.0221 119.02C88.0316 119.028 88.0377 119.039 88.0389 119.051C88.0401 119.064 88.0364 119.076 88.0286 119.085C87.8868 119.388 87.666 119.647 87.3894 119.835C87.1129 120.023 86.7908 120.132 86.4571 120.153C86.1649 120.138 85.8838 120.036 85.6503 119.86C85.4168 119.683 85.2417 119.441 85.1476 119.164C85.1017 119.092 85.1999 119.046 85.2589 119.079Z" fill="#263238"/>
<path d="M89.6528 112.426C89.6528 112.426 90.4319 114.345 90.6742 115.281C90.6742 115.373 87.4527 116.944 85.3705 115.019C85.3488 115.004 85.3338 114.982 85.3289 114.956C85.324 114.93 85.3295 114.903 85.3443 114.882C85.359 114.86 85.3818 114.845 85.4076 114.84C85.4334 114.835 85.4601 114.841 85.4818 114.855C86.8861 115.367 88.4181 115.411 89.8492 114.98C89.8492 114.705 88.3956 111.739 88.5396 111.706C89.2841 111.584 90.0417 111.562 90.7921 111.64C89.273 107.6 87.1253 103.835 85.6782 99.7824C85.6654 99.7524 85.6643 99.7187 85.675 99.6879C85.6857 99.6571 85.7075 99.6314 85.7362 99.6158C85.7648 99.6003 85.7983 99.596 85.8299 99.6038C85.8616 99.6116 85.8892 99.6309 85.9074 99.658C88.4414 103.449 90.2879 108.065 91.9576 112.197C92.1802 112.701 90.0915 112.492 89.6528 112.426Z" fill="#263238"/>
<path d="M89.8427 115.432C89.4949 116.301 88.9315 117.067 88.2057 117.658C87.7983 117.964 87.307 118.137 86.798 118.156C85.6783 118.156 85.3836 117.232 85.3443 116.361C85.3286 115.9 85.3659 115.439 85.4557 114.986C86.8327 115.6 88.3704 115.756 89.8427 115.432Z" fill="#263238"/>
<path d="M88.2051 117.658C87.7977 117.964 87.3064 118.137 86.7974 118.156C85.6777 118.156 85.383 117.232 85.3438 116.361C86.4896 116.158 87.7992 116.604 88.2051 117.658Z" fill="#FF99BA"/>
<path d="M64.7381 113.749C68.4965 113.991 68.9287 105.394 68.9287 105.394C68.9287 105.394 84.6435 101.734 85.2066 88.7165C85.2066 88.7165 88.4347 96.7966 96.9927 100.018C96.9927 100.018 95.5718 85.8748 84.1655 83.8057C84.1655 83.8057 69.9043 79.5758 62.7344 91.1261C55.5646 102.677 62.2171 113.585 64.7381 113.749Z" fill="#263238"/>
<path d="M85.2066 87.754C85.517 89.74 85.3987 91.7694 84.8596 93.7059C84.3508 95.674 83.4364 97.5139 82.175 99.1079C81.8657 99.5086 81.5311 99.8892 81.1732 100.247L80.6493 100.804C80.466 100.974 80.2696 101.131 80.0731 101.295C79.6803 101.609 79.3005 101.95 78.8945 102.244C78.4886 102.539 78.0433 102.781 77.585 103.043C77.3689 103.168 77.1593 103.305 76.9302 103.423L76.2754 103.737L74.9069 104.359C73.964 104.687 73.008 104.962 72.0586 105.224C72.9426 104.772 73.8592 104.412 74.7301 103.96L76.0069 103.24L76.6617 102.879C76.8647 102.748 77.0546 102.598 77.251 102.454C77.6439 102.166 78.0368 101.884 78.4362 101.609C78.8356 101.334 79.1564 100.954 79.5166 100.66L80.06 100.182L80.5446 99.6448C80.8777 99.3011 81.1903 98.9382 81.4809 98.5579C82.6709 97.0398 83.5942 95.3305 84.2114 93.503C84.5272 92.5855 84.7681 91.6439 84.9316 90.6874C85.1058 89.7191 85.1978 88.7378 85.2066 87.754Z" fill="#263238"/>
<path d="M67.5408 113.546C67.5408 113.546 62.0275 108.183 59.5197 110.272C57.0119 112.361 61.9817 120.703 65.511 121.292C65.9582 121.399 66.4225 121.415 66.8761 121.339C67.3297 121.262 67.7631 121.095 68.1502 120.847C68.5374 120.598 68.8704 120.274 69.1291 119.894C69.3878 119.514 69.5669 119.085 69.6557 118.634L67.5408 113.546Z" fill="#EB9481"/>
<path d="M61.0058 112.623C60.9936 112.623 60.982 112.627 60.9734 112.636C60.9648 112.645 60.96 112.656 60.96 112.668C60.96 112.681 60.9648 112.692 60.9734 112.701C60.982 112.709 60.9936 112.714 61.0058 112.714C63.5005 113.205 65.1244 115.117 66.4078 117.173C65.5565 116.453 64.5285 116.165 63.5398 117.173C63.4874 117.232 63.5398 117.311 63.6249 117.285C64.0073 117.079 64.444 116.996 64.8753 117.047C65.3066 117.099 65.7115 117.282 66.0345 117.573C66.5721 118.06 67.0551 118.605 67.4751 119.197C67.6191 119.387 67.9727 119.197 67.8483 118.981L67.8155 118.928C67.3048 116.021 64.2208 112.315 61.0058 112.623Z" fill="#263238"/>
<path d="M63.7689 110.815C63.7689 110.815 60.1938 101.288 61.4313 95.0679C62.8064 88.1403 71.3906 80.2371 81.2058 83.1967C81.2058 83.1967 69.531 84.9449 65.4058 94.328C63.507 98.6495 67.0952 110.089 67.0952 110.089L63.7689 110.815Z" fill="#C7C7C7"/>
<path d="M69.2828 124.393C73.6159 123.044 75.8811 117.944 74.3422 113.004C72.8033 108.063 68.0431 105.152 63.71 106.501C59.3769 107.851 57.1118 112.95 58.6506 117.891C60.1895 122.832 64.9497 125.743 69.2828 124.393Z" fill="#C7C7C7"/>
<path d="M71.9796 113.402C73.3612 117.841 71.3249 122.425 67.3962 123.636C63.4675 124.847 59.2245 122.235 57.8363 117.795C56.4482 113.356 58.4911 108.773 62.4198 107.555C66.3485 106.337 70.598 108.989 71.9796 113.402Z" fill="#455A64"/>
<path d="M79.2219 135.881L75.6206 144.969L64.2929 133.543L61.1172 137.236C61.1172 137.236 72.2485 155.426 72.2878 154.601L75.9939 146.743L81.4155 152.158L80.9244 138.526L79.2219 135.881Z" fill="#EBEBEB"/>
<path d="M81.579 145.414C81.4153 143.168 81.3236 140.89 81.0617 138.65C81.0617 138.572 80.9242 138.539 80.9045 138.65C80.4658 140.824 81.1141 149.435 81.1141 151.497C80.8914 151.261 76.0919 146.73 76.0461 146.802C75.2407 148.046 72.5233 153.756 72.34 154.273C70.5786 151.386 63.1272 139.999 61.0515 137.249C61.0391 137.236 61.0229 137.228 61.0054 137.226C60.988 137.224 60.9702 137.228 60.9551 137.237C60.94 137.246 60.9284 137.26 60.9221 137.276C60.9159 137.293 60.9153 137.311 60.9206 137.328C62.4724 140.379 72.0977 155.406 72.2352 155.367C73.6671 152.673 74.9609 149.909 76.1115 147.084C76.9235 148.073 81.7689 153.186 81.7819 152.852C81.8427 150.371 81.775 147.888 81.579 145.414Z" fill="#263238"/>
<path d="M144.753 75.3262C144.36 79.0928 142.928 82.6761 140.617 85.6762C138.306 88.6764 135.206 90.9753 131.665 92.3166C128.123 93.6578 124.279 93.9886 120.56 93.272C116.841 92.5553 113.395 90.8195 110.606 88.2582L100.378 89.7577L105.498 80.9181C104.339 78.0428 103.85 74.9416 104.067 71.8492C104.283 68.7568 105.201 65.7542 106.75 63.0687C108.299 60.3833 110.438 58.0855 113.006 56.3491C115.574 54.6127 118.504 53.4834 121.573 53.0466C124.642 52.6097 127.77 52.8769 130.721 53.8277C133.671 54.7786 136.367 56.3883 138.603 58.5349C140.84 60.6816 142.559 63.3089 143.63 66.218C144.701 69.1272 145.096 72.2418 144.785 75.3262H144.753Z" fill="white"/>
<path d="M144.753 75.3262C144.357 79.0948 142.93 82.6814 140.628 85.6914C139.497 87.195 138.146 88.5194 136.621 89.6201C135.114 90.7618 133.454 91.6854 131.69 92.3636C129.924 93.0543 128.071 93.4951 126.183 93.6732C125.241 93.7594 124.293 93.7769 123.348 93.7256C122.399 93.703 121.453 93.6045 120.519 93.4309C116.748 92.7521 113.24 91.0357 110.39 88.4742L110.632 88.5463L100.418 90.1177L99.6777 90.2291L100.051 89.5743L105.152 80.7151V81.0686C103.952 78.1385 103.443 74.9719 103.662 71.8134C103.881 68.6549 104.823 65.589 106.415 62.8526C108.006 60.1264 110.193 57.7959 112.813 56.0363C115.431 54.3027 118.407 53.1842 121.518 52.7646C124.63 52.3451 127.796 52.6353 130.78 53.6136C133.727 54.6206 136.412 56.2739 138.637 58.4524C140.866 60.6197 142.574 63.2641 143.634 66.1868C144.693 69.1094 145.076 72.2343 144.753 75.3262ZM144.753 75.3262C145.08 72.2481 144.695 69.136 143.629 66.2299C142.563 63.3238 140.844 60.7012 138.605 58.5642C136.366 56.4273 133.665 54.833 130.713 53.9043C127.76 52.9756 124.633 52.7373 121.574 53.2076C118.543 53.663 115.656 54.8052 113.134 56.547C110.636 58.2992 108.549 60.5736 107.018 63.2127C105.511 65.8613 104.625 68.8171 104.425 71.8577C104.226 74.8983 104.718 77.9446 105.865 80.7674L105.937 80.9508L105.839 81.1145L100.693 89.9409L100.326 89.3975L110.56 87.9635H110.704L110.803 88.0617C113.545 90.6215 116.946 92.3672 120.624 93.1036C121.537 93.2868 122.463 93.3985 123.394 93.4375C124.325 93.503 125.259 93.503 126.19 93.4375C128.057 93.2919 129.894 92.8886 131.651 92.2392C133.417 91.603 135.079 90.707 136.581 89.5808C138.117 88.4874 139.473 87.162 140.602 85.6521C142.911 82.6584 144.347 79.0849 144.753 75.3262Z" fill="#263238"/>
<path d="M133.347 76.2953C134.714 76.2953 135.822 75.1872 135.822 73.8202C135.822 72.4533 134.714 71.3452 133.347 71.3452C131.98 71.3452 130.872 72.4533 130.872 73.8202C130.872 75.1872 131.98 76.2953 133.347 76.2953Z" fill="#263238"/>
<path d="M124.474 76.2953C125.841 76.2953 126.949 75.1872 126.949 73.8202C126.949 72.4533 125.841 71.3452 124.474 71.3452C123.107 71.3452 121.999 72.4533 121.999 73.8202C121.999 75.1872 123.107 76.2953 124.474 76.2953Z" fill="#263238"/>
<path d="M115.609 76.2953C116.976 76.2953 118.084 75.1872 118.084 73.8202C118.084 72.4533 116.976 71.3452 115.609 71.3452C114.242 71.3452 113.134 72.4533 113.134 73.8202C113.134 75.1872 114.242 76.2953 115.609 76.2953Z" fill="#263238"/>
<path d="M348.076 75.3262C347.683 79.0928 346.251 82.6761 343.94 85.6762C341.629 88.6763 338.53 90.9753 334.988 92.3166C331.447 93.6578 327.602 93.9886 323.883 93.2719C320.165 92.5553 316.718 90.8195 313.929 88.2582L303.701 89.7576L308.815 80.9181C307.651 78.0413 307.158 74.9374 307.372 71.8415C307.586 68.7457 308.502 65.7391 310.05 63.0499C311.599 60.3607 313.74 58.0594 316.31 56.3204C318.88 54.5814 321.812 53.4503 324.885 53.0131C327.957 52.5758 331.088 52.8437 334.042 53.7965C336.995 54.7493 339.693 56.362 341.93 58.5124C344.168 60.6627 345.886 63.2942 346.956 66.2074C348.025 69.1206 348.417 72.239 348.102 75.3262H348.076Z" fill="white"/>
<path d="M348.076 75.3262C347.677 79.0941 346.25 82.6799 343.951 85.6914C343.376 86.4368 342.757 87.1474 342.098 87.8195C341.416 88.4724 340.694 89.0825 339.937 89.6463C338.432 90.7907 336.772 91.7145 335.006 92.3899C333.243 93.0808 331.392 93.5216 329.506 93.6994C328.561 93.7857 327.612 93.8032 326.664 93.7518C325.715 93.7289 324.769 93.6304 323.836 93.4572C320.068 92.7652 316.567 91.0375 313.726 88.4677L313.968 88.5397L303.754 90.1112L303.014 90.2225L303.387 89.5678L308.475 80.7085V81.0621C307.276 78.1322 306.766 74.966 306.984 71.8078C307.202 68.6496 308.142 65.5836 309.732 62.8461C311.324 60.1195 313.514 57.7892 316.136 56.0298C318.753 54.2962 321.73 53.1777 324.841 52.7581C327.953 52.3385 331.119 52.6288 334.103 53.6071C337.05 54.6133 339.735 56.2667 341.96 58.4459C344.191 60.613 345.901 63.2584 346.96 66.1825C348.019 69.1066 348.401 72.2331 348.076 75.3262ZM348.076 75.3262C348.402 72.2481 348.018 69.136 346.952 66.2299C345.886 63.3238 344.167 60.7012 341.928 58.5643C339.688 56.4273 336.988 54.8331 334.035 53.9043C331.083 52.9756 327.956 52.7373 324.897 53.2077C321.865 53.663 318.978 54.8052 316.456 56.547C313.959 58.2992 311.872 60.5737 310.341 63.2127C308.823 65.8603 307.928 68.818 307.722 71.8624C307.529 74.9006 308.019 77.9433 309.156 80.7675L309.234 80.9508L309.136 81.1145L303.989 89.941L303.623 89.3975L313.857 87.9635H314.001L314.099 88.0618C316.832 90.6161 320.221 92.3616 323.888 93.1036C324.801 93.2869 325.727 93.3985 326.658 93.4375C327.589 93.503 328.523 93.503 329.454 93.4375C331.321 93.2919 333.158 92.8887 334.915 92.2393C336.681 91.6017 338.342 90.7059 339.845 89.5808C341.377 88.4852 342.731 87.1601 343.859 85.6521C346.194 82.6671 347.654 79.0923 348.076 75.3262Z" fill="#263238"/>
<path d="M336.637 76.2953C338.004 76.2953 339.112 75.1872 339.112 73.8202C339.112 72.4533 338.004 71.3452 336.637 71.3452C335.27 71.3452 334.162 72.4533 334.162 73.8202C334.162 75.1872 335.27 76.2953 336.637 76.2953Z" fill="#263238"/>
<path d="M327.771 76.2953C329.138 76.2953 330.246 75.1872 330.246 73.8202C330.246 72.4533 329.138 71.3452 327.771 71.3452C326.404 71.3452 325.296 72.4533 325.296 73.8202C325.296 75.1872 326.404 76.2953 327.771 76.2953Z" fill="#263238"/>
<path d="M321.381 73.8202C321.382 74.31 321.238 74.7892 320.967 75.1971C320.696 75.605 320.31 75.9232 319.857 76.1116C319.405 76.2999 318.907 76.3498 318.427 76.2551C317.946 76.1603 317.505 75.9251 317.158 75.5792C316.811 75.2333 316.575 74.7923 316.479 74.312C316.383 73.8317 316.431 73.3337 316.618 72.8811C316.806 72.4285 317.123 72.0415 317.53 71.7693C317.937 71.497 318.416 71.3517 318.906 71.3517C319.561 71.3517 320.19 71.6116 320.654 72.0743C321.118 72.5371 321.379 73.1649 321.381 73.8202Z" fill="#263238"/>
<path d="M110.914 220.243H106.533V223.104H110.914V220.243Z" fill="#455A64"/>
<path d="M116.597 220.053H112.217V222.914H116.597V220.053Z" fill="#455A64"/>
<path d="M122.281 219.863H117.9V222.724H122.281V219.863Z" fill="#455A64"/>
<path d="M127.958 219.673H123.577V222.535H127.958V219.673Z" fill="#455A64"/>
<path d="M133.641 219.483H129.261V222.345H133.641V219.483Z" fill="#455A64"/>
<path d="M139.325 219.3H134.944V222.161H139.325V219.3Z" fill="#455A64"/>
<path d="M145.002 219.11H140.621V221.971H145.002V219.11Z" fill="#455A64"/>
<path d="M150.685 218.92H146.305V221.782H150.685V218.92Z" fill="#455A64"/>
<path d="M156.362 218.73H151.981V221.592H156.362V218.73Z" fill="#455A64"/>
<path d="M157.436 224.748H105.459V221.264L157.436 219.817V224.748Z" fill="#37474F"/>
<path d="M208.168 211.023H122.365L136.011 147.143H221.814L208.168 211.023Z" fill="#455A64"/>
<path d="M211.344 211.023H125.535L139.181 147.143H224.99L211.344 211.023Z" fill="#37474F"/>
<path d="M182.677 175.384C182.414 176.838 181.66 178.158 180.541 179.123C179.422 180.088 178.006 180.641 176.529 180.687C175.862 180.708 175.2 180.577 174.591 180.305C173.982 180.033 173.443 179.627 173.014 179.116C172.585 178.606 172.277 178.005 172.113 177.358C171.95 176.712 171.935 176.037 172.07 175.384C172.33 173.929 173.082 172.607 174.2 171.641C175.318 170.674 176.734 170.121 178.212 170.073C178.879 170.051 179.543 170.181 180.154 170.453C180.764 170.725 181.304 171.132 181.734 171.644C182.164 172.155 182.473 172.757 182.636 173.405C182.799 174.053 182.813 174.73 182.677 175.384Z" fill="#263238"/>
<path d="M187.078 227.707H144.877V224.427L187.078 223.065V227.707Z" fill="#455A64"/>
<path d="M198.55 227.701H175.888L162.242 191.904H184.904L198.55 227.701Z" fill="#455A64"/>
<path d="M202.276 227.701H179.62L165.975 191.904H188.63L202.276 227.701Z" fill="#263238"/>
<path d="M103.842 228.578H60.3511C56.6385 228.578 62.0077 218.003 75.5617 213.95C89.1158 209.897 108.131 224.61 103.842 228.578Z" fill="#37474F"/>
<path d="M86.8174 228.578C86.8467 227.373 87.045 226.179 87.4067 225.029C87.7558 223.867 88.2462 222.752 88.8669 221.71C89.489 220.66 90.2686 219.713 91.1782 218.9C92.0803 218.094 93.1177 217.454 94.2426 217.008C93.7777 217.388 93.2474 217.663 92.8217 218.075L92.167 218.645L91.5515 219.3C90.7471 220.142 90.0419 221.074 89.4496 222.076C88.8474 223.079 88.3305 224.13 87.9043 225.219C87.4676 226.313 87.1044 227.436 86.8174 228.578Z" fill="#263238"/>
<path d="M91.9375 218.514C94.5255 219.333 96.974 220.541 99.199 222.096C100.325 222.874 101.344 223.796 102.231 224.839C103.16 225.877 103.726 227.19 103.841 228.578C103.481 227.298 102.79 226.135 101.838 225.206C100.91 224.261 99.895 223.406 98.8062 222.652C97.7258 221.873 96.593 221.173 95.4406 220.485C94.2882 219.798 93.1292 219.149 91.9375 218.514Z" fill="#263238"/>
<path d="M311.84 220.243H307.46V223.104H311.84V220.243Z" fill="#455A64"/>
<path d="M317.524 220.053H313.144V222.914H317.524V220.053Z" fill="#455A64"/>
<path d="M323.208 219.863H318.827V222.724H323.208V219.863Z" fill="#455A64"/>
<path d="M328.884 219.673H324.504V222.535H328.884V219.673Z" fill="#455A64"/>
<path d="M334.568 219.483H330.188V222.345H334.568V219.483Z" fill="#455A64"/>
<path d="M340.252 219.3H335.871V222.161H340.252V219.3Z" fill="#455A64"/>
<path d="M345.928 219.11H341.548V221.971H345.928V219.11Z" fill="#455A64"/>
<path d="M351.612 218.92H347.231V221.782H351.612V218.92Z" fill="#455A64"/>
<path d="M357.296 218.73H352.915V221.592H357.296V218.73Z" fill="#455A64"/>
<path d="M358.369 224.748H306.393V221.264L358.369 219.817V224.748Z" fill="#37474F"/>
<path d="M409.095 211.023H323.292L336.938 147.143H422.74L409.095 211.023Z" fill="#455A64"/>
<path d="M412.271 211.023H326.468L340.113 147.143H425.916L412.271 211.023Z" fill="#37474F"/>
<path d="M383.604 175.384C383.341 176.837 382.588 178.156 381.471 179.121C380.353 180.086 378.938 180.639 377.462 180.687C376.795 180.709 376.132 180.579 375.522 180.308C374.913 180.036 374.372 179.629 373.943 179.119C373.513 178.608 373.204 178.007 373.04 177.36C372.876 176.713 372.862 176.037 372.997 175.384C373.258 173.929 374.01 172.609 375.128 171.642C376.246 170.676 377.662 170.122 379.138 170.073C379.806 170.051 380.47 170.181 381.08 170.453C381.691 170.725 382.231 171.132 382.661 171.644C383.091 172.155 383.399 172.757 383.563 173.405C383.726 174.053 383.74 174.73 383.604 175.384Z" fill="#263238"/>
<path d="M388.004 227.707H345.804V224.427L388.004 223.065V227.707Z" fill="#455A64"/>
<path d="M399.477 227.701H376.815L363.169 191.904H385.831L399.477 227.701Z" fill="#455A64"/>
<path d="M403.209 227.701H380.547L366.901 191.904H389.563L403.209 227.701Z" fill="#263238"/>
<path d="M304.788 228.578H261.278C257.565 228.578 262.934 218.003 276.489 213.95C290.043 209.897 309.057 224.61 304.788 228.578Z" fill="#37474F"/>
<path d="M287.712 228.578C287.744 227.374 287.942 226.18 288.301 225.029C288.653 223.868 289.143 222.754 289.761 221.71C290.388 220.663 291.167 219.717 292.073 218.9C292.975 218.094 294.012 217.454 295.137 217.008C294.672 217.388 294.142 217.663 293.716 218.075L293.062 218.645L292.446 219.3C291.638 220.14 290.93 221.072 290.338 222.076C289.735 223.079 289.219 224.13 288.792 225.219C288.358 226.314 287.997 227.436 287.712 228.578Z" fill="#263238"/>
<path d="M292.864 218.514C295.452 219.333 297.901 220.541 300.126 222.096C301.253 222.876 302.274 223.798 303.164 224.839C304.091 225.87 304.66 227.172 304.788 228.552C304.425 227.271 303.732 226.108 302.778 225.18C301.85 224.235 300.835 223.38 299.746 222.626C298.672 221.847 297.533 221.146 296.38 220.459C295.228 219.771 294.063 219.149 292.864 218.514Z" fill="#263238"/>
</svg>
